<svg width="550" height="231" viewBox="0 0 550 231" fill="none" xmlns="http://www.w3.org/2000/svg">
<path d="M37.0102 36.6037C37.0241 36.6037 37.0379 36.5832 37.0379 36.5832C37.1485 36.5016 37.2592 36.3996 37.356 36.2771C37.3422 36.2771 37.3284 36.2771 37.3145 36.2567C37.2177 36.3587 37.1071 36.4812 37.0102 36.6037Z" fill="#000091"/>
<path d="M52.3379 31.4447L52.0958 31.6529C52.2341 31.6182 52.3379 31.5835 52.3379 31.4447Z" fill="#000091"/>
<path fill-rule="evenodd" clip-rule="evenodd" d="M47.3823 36.7146C47.8263 36.2685 48.2702 35.7954 48.7142 35.3088H48.7007C49.5348 34.3625 50.342 33.4568 51.3107 32.6322C51.6066 32.3619 51.8891 32.1321 52.1582 31.9428C52.1977 31.9031 52.2179 31.8439 52.2377 31.786C52.2583 31.7255 52.2784 31.6664 52.3197 31.6319C52.1279 31.705 51.9751 31.8206 51.8214 31.9368C51.6624 32.0571 51.5024 32.1781 51.2972 32.2537C51.2165 32.2537 51.1358 32.1726 51.2165 32.0915C51.499 31.8887 51.7815 31.6724 52.0506 31.4562H51.9968C51.9161 31.4562 51.9161 31.3751 51.9161 31.2939C50.9145 31.135 50.1453 31.8193 49.4567 32.4318L49.4137 32.47C49.3066 32.5239 49.2053 32.4704 49.1257 32.4285C49.0854 32.4072 49.0507 32.3889 49.0236 32.3889C48.4144 32.593 47.889 32.9692 47.3601 33.3478C46.873 33.6966 46.3829 34.0475 45.8217 34.2679V34.1057C45.6312 34.1713 45.4428 34.2569 45.254 34.3427C44.9762 34.4689 44.6975 34.5955 44.4091 34.6599C43.8826 34.782 43.3942 34.7662 42.9209 34.751C42.7655 34.746 42.6114 34.741 42.4584 34.741C41.5968 34.8264 40.7461 35.0107 39.8965 35.1948L39.6198 35.2547C39.6063 35.2614 39.5929 35.2648 39.5794 35.2682C39.566 35.2716 39.5525 35.275 39.5391 35.2817C39.0278 35.4169 38.557 35.6062 38.0861 35.8765L38.0323 35.9035C38.0138 35.9283 37.9953 35.9503 37.9781 35.9707C37.9578 35.9948 37.9393 36.0168 37.9247 36.0387C37.7632 36.228 37.6153 36.3902 37.3866 36.5119C37.0488 36.6816 36.7568 36.9433 36.4696 37.2008C36.3451 37.3124 36.2211 37.4236 36.095 37.5257C36.0681 37.5527 36.0143 37.5663 35.974 37.5663C35.557 37.9717 35.1398 38.3774 34.7094 38.7693C34.6825 38.7964 34.5614 38.8099 34.4672 38.7964C34.4672 38.7964 34.4807 38.7964 34.4807 38.7829L34.521 38.7018L34.7228 38.3773C34.7632 38.3165 34.8002 38.2557 34.8372 38.1948C34.8742 38.134 34.9112 38.0732 34.9515 38.0123C35.059 37.8503 35.1669 37.6878 35.2878 37.5392C35.3148 37.4987 35.3148 37.4581 35.2878 37.4311C35.2609 37.404 35.2206 37.3905 35.1802 37.3905C35.5704 37.012 36.0278 36.6876 36.4986 36.4037V36.3902C36.4448 36.4037 36.3641 36.3632 36.4045 36.3091C36.4439 36.2595 36.4762 36.2027 36.5065 36.1492L36.539 36.0928C36.5457 36.0793 36.5491 36.0691 36.5524 36.059C36.5558 36.0489 36.5592 36.0387 36.5659 36.0252C36.5592 36.0117 36.5491 36.0016 36.539 35.9914C36.5289 35.9813 36.5188 35.9711 36.5121 35.9576L36.4305 36.0114C36.333 36.0751 36.2328 36.1407 36.1489 36.2145C36.0895 36.2656 36.0341 36.3356 35.9772 36.4075C35.8538 36.5634 35.7234 36.7281 35.53 36.7281C35.5166 36.7281 35.4493 36.7281 35.4089 36.7146C35.3686 36.7146 35.3417 36.7011 35.3282 36.6876C35.3282 36.6808 35.3282 36.6774 35.3299 36.6758C35.3316 36.6741 35.3349 36.6741 35.3417 36.6741C35.3417 36.6741 35.3551 36.6606 35.3551 36.647C35.3551 36.647 35.3551 36.6335 35.3686 36.6335C35.3753 36.62 35.382 36.6099 35.3887 36.5997C35.3955 36.5896 35.4022 36.5794 35.4089 36.5659C35.4157 36.5524 35.4224 36.5423 35.4291 36.5321C35.4358 36.522 35.4426 36.5119 35.4493 36.4983C35.456 36.4916 35.4594 36.4814 35.4627 36.4713C35.4661 36.4612 35.4695 36.451 35.4762 36.4443L35.4914 36.4164C35.5047 36.3927 35.5206 36.3644 35.53 36.3361C35.5367 36.3226 35.5435 36.3125 35.5502 36.3023C35.5569 36.2922 35.5636 36.282 35.5704 36.2685C35.5905 36.2415 35.6074 36.2111 35.6242 36.1807C35.641 36.1502 35.6578 36.1198 35.678 36.0928C35.6914 36.0658 35.7049 36.0387 35.7318 36.0117C35.7453 35.9847 35.7587 35.961 35.7722 35.9373C35.7856 35.9137 35.7991 35.89 35.8125 35.863C35.8529 35.7954 35.8125 35.7413 35.7587 35.7278C35.9067 35.5386 36.0816 35.3764 36.2968 35.2547H36.2699C36.4557 35.1614 36.6467 35.0521 36.8364 34.9435C36.9484 34.8795 37.0616 34.8146 37.1713 34.7545C37.2117 34.714 37.252 34.6734 37.3058 34.6464C36.8619 34.7951 36.4583 34.9979 36.0681 35.2682C36.0681 35.2682 35.9605 35.3088 35.9336 35.3358C35.9336 35.3358 35.8529 35.3628 35.7453 35.2682C35.7318 35.2547 35.7318 35.2412 35.7318 35.2141C35.7786 35.1202 35.875 35.0579 35.9793 34.9907C36.055 34.9418 36.1348 34.8904 36.2027 34.8221C36.2834 34.8221 36.3507 34.8221 36.3507 34.9032C37.9001 33.6895 39.8105 33.4088 41.7276 33.127C42.9065 32.9538 44.088 32.7801 45.1894 32.3889C45.3038 32.3078 45.4215 32.2301 45.5392 32.1523C45.6569 32.0746 45.7746 31.9969 45.889 31.9158C46.0852 31.8342 46.261 31.6945 46.4472 31.5465C46.6312 31.4003 46.8254 31.246 47.0594 31.1317C47.6783 30.6586 48.1491 30.1179 48.3913 29.3203C48.3913 29.2392 48.3106 29.1581 48.3106 29.1581C47.2881 30.2531 46.1177 31.1182 44.8666 31.7536C43.6735 32.3824 42.3952 32.4756 41.1297 32.5678C40.6543 32.6025 40.1806 32.637 39.714 32.6998C39.7947 32.5376 39.9561 32.5376 40.1041 32.5376C40.1041 32.3456 40.1962 32.2631 40.3143 32.1571C40.3459 32.1288 40.3795 32.0987 40.4135 32.0645H40.6422C40.6826 32.0645 40.7028 32.0239 40.723 31.9834C40.7431 31.9428 40.7633 31.9023 40.8037 31.9023C40.9651 31.9023 41.1938 31.8211 41.1131 31.8211C40.9897 31.6627 40.8104 31.7254 40.6125 31.7946C40.4222 31.8612 40.2147 31.9338 40.0234 31.8211C40.0945 31.7432 40.1159 31.6496 40.1354 31.5644C40.1564 31.4724 40.1752 31.3901 40.2521 31.348H40.5615C40.5615 31.1858 40.723 31.0371 40.723 31.0371C41.4246 30.6157 42.1021 30.2478 42.7669 29.8867C43.211 29.6455 43.6499 29.4071 44.0863 29.1581C43.998 29.1581 43.9197 29.1944 43.8438 29.2295C43.7229 29.2855 43.6079 29.3388 43.4674 29.2392C43.5481 29.2392 43.5481 29.1818 43.5481 29.1243C43.5481 29.0669 43.5481 29.0094 43.6289 29.0094C44.1336 28.8747 44.5828 28.6564 45.0416 28.4334C45.3655 28.276 45.6941 28.1163 46.0504 27.9821C45.9447 27.9821 45.8468 28.0105 45.7514 28.0382C45.5676 28.0915 45.3931 28.1422 45.1894 27.9821C45.2429 27.9552 45.286 27.9209 45.3286 27.8871C45.4146 27.8188 45.4983 27.7523 45.6603 27.7523V27.5224C45.6603 27.4413 45.741 27.4413 45.8217 27.4413C45.741 27.4413 45.6603 27.3602 45.6603 27.3602C45.703 27.2744 45.7872 27.2567 45.881 27.237C45.9643 27.2195 46.0552 27.2004 46.1312 27.1304C46.0504 27.1304 45.9025 27.1304 45.9025 27.0493C46.1312 26.7384 46.5213 26.6573 46.9114 26.5762C46.8711 26.4951 46.7937 26.4951 46.7265 26.4951C46.6592 26.4951 46.602 26.4951 46.602 26.414C46.602 26.3329 46.6827 26.3329 46.7635 26.3329H46.602C46.4753 26.2692 46.4978 26.1556 46.5133 26.077C46.5176 26.0554 46.5213 26.0365 46.5213 26.022C46.8373 25.65 46.9413 25.211 47.0446 24.7745C47.0952 24.5607 47.1457 24.3474 47.2209 24.143C47.1402 24.143 47.0594 24.143 47.0594 24.0619C46.303 24.9006 45.104 25.2184 43.965 25.5203L43.8576 25.5488H43.4674C43.0773 25.711 42.5257 25.7111 42.1355 25.4677C41.95 25.3705 41.8177 25.2489 41.6748 25.1176C41.5793 25.03 41.4792 24.9379 41.3553 24.8459C40.723 24.4539 40.1041 24.143 39.4045 23.8997C37.4538 23.2778 35.4224 22.9534 33.3909 23.0345C33.9582 22.7228 34.5606 22.5988 35.171 22.4732C35.487 22.4082 35.8053 22.3427 36.1219 22.2505C36.3217 22.1917 36.5196 22.1311 36.7165 22.0708C37.8324 21.729 38.9149 21.3975 40.1041 21.4664C39.9484 21.4112 39.7491 21.4312 39.5656 21.4495C39.4795 21.4582 39.3969 21.4664 39.3238 21.4664C38.4246 21.3995 37.5161 21.5995 36.5683 21.8082C36.3676 21.8524 36.1651 21.897 35.9605 21.9396C35.5893 22.0167 35.2363 22.1276 34.8828 22.2386C34.4933 22.3609 34.103 22.4834 33.6869 22.5614C33.5064 22.6236 33.3615 22.7294 33.2204 22.8326C32.9933 22.9985 32.7759 23.1573 32.4358 23.1156V22.8723C33.216 21.926 34.1578 20.9933 35.4089 20.9122C36.6183 20.7154 37.7587 20.8556 38.9482 21.0018C39.1481 21.0263 39.3493 21.0511 39.5525 21.0744C40.5277 21.1528 41.4401 21.3701 42.4232 21.6042L42.5257 21.6286C42.7409 21.6286 42.862 21.8179 42.9793 22.0013C43.0745 22.1502 43.1673 22.2952 43.306 22.3316C43.4975 22.3976 43.6891 22.4099 43.8806 22.4222C44.1599 22.4401 44.4392 22.458 44.7186 22.6425C44.7186 22.5879 44.7094 22.5349 44.7004 22.4823C44.6825 22.3787 44.665 22.277 44.7186 22.1694C44.8921 21.9949 45.0911 22.0417 45.287 22.0878C45.4403 22.1239 45.5917 22.1595 45.7276 22.0883C46.1542 21.8238 45.754 21.4177 45.3535 21.0113C45.1604 20.8154 44.9672 20.6194 44.8666 20.4391C44.8666 20.358 44.9473 20.2769 44.9473 20.2769C45.1239 20.4351 45.2886 20.5988 45.4517 20.7611C45.8602 21.1674 46.2597 21.5648 46.8173 21.8449C47.2074 22.0071 48.1491 22.2369 47.9877 21.7638C47.7114 21.1511 47.2393 20.6197 46.7628 20.0832C46.5665 19.8623 46.3694 19.6404 46.185 19.4117V19.1008C46.0623 19.1008 46.0329 19.054 45.9963 18.996C45.9847 18.9776 45.9724 18.9581 45.9563 18.9386V18.6277C45.759 18.5243 45.7149 18.3605 45.6704 18.1958C45.6451 18.1021 45.6198 18.0081 45.5661 17.9247C45.4313 17.7064 45.4216 17.4378 45.4116 17.1609C45.4036 16.9406 45.3955 16.715 45.324 16.5054C45.1625 16.0322 45.0953 15.6402 45.0145 15.1671C44.927 14.6831 44.8306 14.2202 44.7362 13.7671C44.5697 12.9675 44.4094 12.198 44.315 11.3956C44.1905 10.2486 44.7703 9.27864 45.363 8.28705C45.5387 7.9931 45.7156 7.69722 45.8756 7.39429C46.4271 6.44804 47.046 5.5153 48.0684 4.87996C48.2915 3.95706 48.8985 3.18846 49.5025 2.42367L49.5483 2.36563C50.1444 1.62345 51.1399 1.16973 51.8736 0.835348L51.9564 0.797556C53.0461 0.310912 54.0282 0 54.0417 0H0V41.6216H38.3417C39.3672 40.879 40.3863 40.4105 41.5994 39.8528C42.1529 39.5983 42.7468 39.3253 43.4002 38.9991C43.5385 38.9296 43.7029 38.8488 43.8854 38.7591C44.9804 38.2209 46.725 37.3635 47.3823 36.7146ZM35.2161 31.0992C35.0639 31.1145 34.9027 31.1307 34.9635 31.0086C35.02 30.735 35.3005 30.653 35.5743 30.5729C35.6916 30.5386 35.8077 30.5046 35.9044 30.4561L35.9486 30.4333L35.9809 30.4162C36.1326 30.3357 36.3183 30.2372 36.4554 30.2944C36.5479 30.4258 36.6624 30.4597 36.7738 30.4926C36.8566 30.5171 36.9377 30.5411 37.0065 30.6044C36.7157 30.8958 36.3764 30.9246 36.0324 30.9537C35.8038 30.9731 35.5732 30.9926 35.3533 31.0894C35.3138 31.0894 35.2654 31.0943 35.2161 31.0992ZM23.3137 29.1983C23.3137 29.2794 23.3945 29.3605 23.3945 29.3605C25.2779 27.2382 26.9865 25.4268 29.4081 23.9263C29.4729 23.8992 29.4488 23.9331 29.4167 23.9781C29.369 24.0452 29.3036 24.1371 29.4888 24.0885C30.2905 23.9059 30.6505 23.2199 31.0008 22.5524C31.0914 22.3798 31.1813 22.2084 31.2781 22.0473C31.6454 21.4504 32.1672 21.068 32.693 20.6826C33.0722 20.4047 33.4534 20.1253 33.7804 19.7628C33.7804 19.8439 33.7804 19.925 33.6996 20.0061C33.7804 20.0872 33.8611 20.0872 33.9418 20.0872C34.0837 19.9803 34.2387 19.936 34.3871 19.8936C34.5765 19.8395 34.7554 19.7884 34.8835 19.6141C34.2647 19.3708 33.4709 19.2897 32.8521 19.533C31.2108 20.317 29.8117 21.5742 28.4798 22.9936C27.6726 23.8452 26.8385 24.6428 25.816 25.197C25.1165 26.6029 24.3362 27.86 23.3137 29.1983ZM29.8816 24.1708C29.8395 24.2553 29.7973 24.2993 29.7571 24.3414C29.7204 24.3797 29.6852 24.4164 29.6531 24.4807C29.5725 24.6424 29.4918 24.7098 29.344 24.7906C29.2633 24.7906 29.1827 24.7906 29.1827 24.7098C29.2633 24.3999 29.4918 24.0899 29.801 24.0091C29.8816 24.0226 29.8816 24.1034 29.8816 24.1708ZM33.3218 36.1756C33.389 36.108 33.4697 36.0269 33.51 35.9458C33.5772 35.7836 33.1605 35.8241 33.0933 35.8647C33.0324 35.9137 32.9935 35.9628 32.9467 36.022L32.9321 36.0404C32.876 36.1048 32.8104 36.1645 32.7438 36.225C32.6986 36.2661 32.6529 36.3076 32.6095 36.3513C32.4213 36.5406 32.2331 36.7298 32.0315 36.9055C31.8971 37.0272 32.3272 37.0813 32.4213 37.0002C32.5288 36.9191 32.6229 36.8244 32.717 36.7298C32.7528 36.7298 32.7887 36.7238 32.8126 36.7198L32.829 36.7172L32.838 36.7163C33.0608 36.6416 33.2266 36.4866 33.3879 36.3359L33.4294 36.2972C33.4831 36.2432 33.4159 36.1891 33.3218 36.1756ZM32.1055 35.2965C32.104 35.2968 32.1029 35.2972 32.1022 35.2979C32.1005 35.2996 32.1005 35.303 32.1005 35.3097C32.018 35.3663 31.9365 35.4239 31.8552 35.4813C31.6449 35.63 31.4357 35.7778 31.2126 35.9045C30.9992 36.0246 30.7803 36.1284 30.5595 36.2331C30.4324 36.2934 30.3045 36.354 30.1767 36.4182C30.1767 36.4182 30.1767 36.4047 30.1632 36.4047C30.1363 36.3641 30.0825 36.3506 30.0287 36.3777C29.7327 36.5399 29.4771 36.7562 29.2484 36.986C29.208 37.013 29.1677 37.0536 29.1408 37.0941L29.0197 37.2158V37.2293C28.9659 37.2834 28.9121 37.3374 28.8448 37.4185C28.8308 37.4326 28.8201 37.4466 28.8097 37.4601C28.7903 37.4856 28.7723 37.509 28.7372 37.5267C28.6833 37.5537 28.5488 37.5537 28.5623 37.4726V37.4591C28.5219 37.4861 28.4681 37.5132 28.4277 37.5267C28.4076 37.5402 28.3874 37.5503 28.3672 37.5605C28.347 37.5706 28.3268 37.5808 28.3067 37.5943C28.2932 37.5808 28.2663 37.5808 28.2528 37.5808C28.2394 37.5808 28.2125 37.5808 28.199 37.5943C28.1676 37.6213 28.1362 37.6468 28.1049 37.6724C28.0421 37.7234 27.9793 37.7745 27.9165 37.8376C27.7551 37.9863 27.6071 38.1485 27.4591 38.3242C27.4591 38.3242 27.4591 38.3378 27.4457 38.3378C27.4457 38.3445 27.4423 38.3479 27.4389 38.3513C27.4356 38.3547 27.4322 38.358 27.4322 38.3648L27.4053 38.3918C27.4002 38.397 27.397 38.4022 27.3943 38.4066C27.3899 38.4137 27.3867 38.4189 27.3784 38.4189L27.3649 38.4324C27.3515 38.4594 27.338 38.4865 27.3111 38.5135C27.2977 38.527 27.2708 38.5405 27.2439 38.5405C27.2304 38.527 27.2169 38.5135 27.2169 38.5C27.2102 38.4932 27.2069 38.4865 27.2035 38.4797C27.2001 38.4729 27.1968 38.4662 27.19 38.4594C27.1766 38.4391 27.1665 38.4189 27.1564 38.3986C27.1463 38.3783 27.1362 38.358 27.1228 38.3378V38.3242C27.1228 38.3175 27.1194 38.3107 27.116 38.304C27.1127 38.2972 27.1093 38.2904 27.1093 38.2837L27.3515 37.9998L27.3649 37.9863C27.3784 37.9728 27.3918 37.9559 27.4053 37.939C27.4187 37.9221 27.4322 37.9052 27.4457 37.8917C27.4658 37.8646 27.4894 37.8376 27.5129 37.8106C27.5364 37.7835 27.56 37.7565 27.5802 37.7294C27.5869 37.7159 27.5936 37.7058 27.6004 37.6957C27.6071 37.6855 27.6138 37.6754 27.6205 37.6619C27.7013 37.5537 27.782 37.4456 27.8627 37.3239V37.3104C27.8762 37.2969 27.8896 37.2834 27.8896 37.2563C27.9299 37.2023 27.9703 37.1482 27.9972 37.0941L28.078 36.9319V36.9184L28.0914 36.9049C28.0914 36.8981 28.0948 36.8947 28.0981 36.8913C28.1015 36.888 28.1049 36.8846 28.1049 36.8778C28.1183 36.844 28.1317 36.8137 28.1452 36.7833C28.1586 36.7529 28.1721 36.7224 28.1856 36.6886V36.6751L28.199 36.621C28.2058 36.6075 28.2091 36.5939 28.2125 36.5804C28.2158 36.5669 28.2192 36.5534 28.2259 36.5399V36.5264C28.2327 36.5061 28.236 36.4858 28.2394 36.4655C28.2428 36.4452 28.2461 36.425 28.2528 36.4047C28.2528 36.3912 28.2528 36.3641 28.2394 36.3506C28.3201 36.2019 28.4277 36.0667 28.5488 35.9316C28.5421 35.9316 28.5354 35.9349 28.5286 35.9383C28.5248 35.9403 28.5209 35.9422 28.5171 35.9435C28.5142 35.9445 28.5113 35.9451 28.5085 35.9451C28.4486 35.9827 28.397 36.0328 28.3445 36.0839C28.3027 36.1246 28.2602 36.1659 28.2125 36.2019C28.1318 36.2695 27.9703 36.1614 28.078 36.0803C28.1452 36.0262 28.199 35.9721 28.2528 35.9181C28.2528 35.9181 28.2528 35.9045 28.2663 35.9045C28.3199 35.856 28.3714 35.8011 28.4233 35.7457C28.5016 35.6622 28.5809 35.5775 28.6699 35.5125C28.7641 35.4449 28.8313 35.3909 28.9121 35.3233C28.9255 35.3097 28.939 35.2962 28.9524 35.2962C29.0062 35.2286 29.06 35.161 29.1273 35.0935C29.1273 35.0935 29.1408 35.0935 29.1408 35.0799C29.6028 34.6323 30.2519 34.4744 30.9146 34.3133C31.3325 34.2116 31.7558 34.1087 32.1408 33.9309C32.3583 33.8405 32.6009 33.8761 32.8405 33.9112C33.0308 33.9392 33.2193 33.9668 33.392 33.9309C33.6207 33.9309 33.8628 33.9309 34.0916 34.0931C33.5596 34.3761 33.0519 34.6997 32.5497 35.0198C32.4042 35.1125 32.2589 35.2052 32.1139 35.2962C32.1102 35.2962 32.1075 35.2962 32.1055 35.2965ZM33.7866 29.787C33.7237 29.7942 33.6829 29.7989 33.7178 29.834C33.9465 30.0638 34.4174 29.9827 34.7403 29.807C34.969 29.6448 35.2111 29.6448 35.5206 29.6448C35.6013 29.6448 35.6013 29.4961 35.6013 29.415C35.83 29.4961 35.9914 29.4961 36.2201 29.4961C38.0901 29.1041 39.8929 28.7121 41.6149 27.8469C39.8725 26.502 37.7244 25.9029 35.6204 25.3161C35.2713 25.2187 34.9234 25.1217 34.5788 25.0217C34.6546 25.0217 34.7303 25.0469 34.8066 25.0722C34.9605 25.1235 35.1165 25.1754 35.2784 25.0217C35.065 24.8516 34.8273 24.819 34.592 24.7868C34.3972 24.7602 34.2039 24.7337 34.0273 24.6296C34.0457 24.6296 34.0676 24.6339 34.0915 24.6385C34.172 24.654 34.2744 24.6737 34.3367 24.5485C33.928 24.3432 33.5194 24.2735 33.1068 24.2031C32.8947 24.1669 32.6814 24.1305 32.4667 24.0754C32.8568 23.9943 33.099 23.6834 33.099 23.2914C33.099 23.2103 32.9376 23.2103 32.8568 23.2103C31.9286 23.6834 31.2963 24.5485 30.9061 25.5624C31.2578 25.7693 31.6369 25.7453 32.0085 25.7218C32.2196 25.7084 32.4283 25.6952 32.6281 25.7246C32.4517 25.892 32.1968 25.9375 31.9517 25.9812C31.8604 25.9974 31.7704 26.0135 31.6864 26.0355C31.4442 26.0896 31.2155 26.2653 31.2963 26.4275C31.3501 26.4951 31.4039 26.5222 31.4711 26.5357C31.2963 26.5897 31.1348 26.6709 30.9868 26.8195C31.2083 26.9937 31.4367 26.9601 31.6621 26.9269C31.7516 26.9138 31.8406 26.9007 31.9286 26.9007C31.9286 26.9988 31.9931 27.0322 32.0601 27.0669C32.0946 27.0847 32.1298 27.1029 32.1573 27.1305C31.7671 27.2792 31.4577 27.6036 31.377 27.8334C31.2805 28.0676 31.1025 28.2197 30.926 28.3706C30.807 28.4723 30.6888 28.5733 30.5967 28.6985V28.9419C30.3368 29.172 30.0697 29.3775 29.8062 29.5803C29.2651 29.9967 28.7393 30.4012 28.3231 30.9831C28.4038 30.9831 28.4038 31.0642 28.4038 31.1453C28.3294 31.2575 28.2235 31.3352 28.123 31.4089C28.0057 31.495 27.8957 31.5757 27.8522 31.6995C27.8522 31.7806 27.8522 31.8617 27.9329 31.8617C28.4266 31.6987 28.8538 31.4243 29.2725 31.1553C29.6525 30.9111 30.0256 30.6714 30.4352 30.5235C30.77 30.443 31.0615 30.2914 31.3459 30.1434C31.5872 30.0179 31.8234 29.895 32.0765 29.8205C32.2716 29.78 32.4869 29.7225 32.7021 29.6651C32.9174 29.6076 33.1326 29.5502 33.3277 29.5096C33.3277 29.5907 33.3277 29.6718 33.4084 29.6718H34.0273C33.9891 29.7637 33.869 29.7775 33.7866 29.787Z" fill="#000091"/>
<path d="M114.583 0H69.7677C69.7677 0 69.849 0.0135311 70.1877 0.189435C70.5534 0.37887 71.0276 0.635961 71.3121 0.784803C71.8947 1.08249 72.4501 1.46136 72.8159 2.04319C72.9785 2.27322 73.2088 2.74681 73.0598 3.05803C72.8972 3.45043 72.8159 4.08639 72.423 4.23523C71.9489 4.47879 71.3257 4.47879 70.7702 4.3976C70.4586 4.3976 70.147 4.31642 69.8219 4.23523C71.0005 4.70882 72.1114 5.26359 72.8972 6.35961C72.9785 6.52198 73.2901 6.58964 73.6017 6.58964C73.683 6.58964 73.683 6.75201 73.683 6.81967C73.5204 6.98204 73.3714 7.06323 73.4527 7.29325H73.683C74.0758 7.13088 73.9946 6.34608 74.55 6.58964C74.9429 6.81967 75.1055 7.37444 74.8616 7.76684C74.55 8.07806 74.2384 8.32162 73.9133 8.55165C73.832 8.71402 73.832 8.94405 73.9133 9.10642C74.1436 9.41763 74.2249 9.72885 74.3062 10.0536C74.55 10.6084 74.6178 11.2308 74.8616 11.7856C75.1732 12.9628 75.4848 14.14 75.4171 15.3307C75.4171 15.9531 75.1055 16.5079 75.3358 17.1439C75.4984 17.7663 75.8912 18.2399 76.2028 18.7947C76.5144 19.2683 76.826 19.5795 77.0699 20.0531C77.5441 20.8379 78.4111 21.6227 78.0182 22.5698C77.7879 23.1246 76.9209 23.0434 76.3654 23.3547C75.8912 23.7471 76.2841 24.383 76.528 24.7754C76.9209 25.479 76.0538 25.9526 75.4984 26.1962C75.6609 26.4397 75.9725 26.3586 76.0538 26.5074C76.1351 26.8998 76.528 27.1298 76.2841 27.5358C75.9725 28.0093 75.0242 28.2394 75.4984 28.9565C75.8099 29.5113 75.6067 30.1202 75.4171 30.6885C75.1868 31.3921 74.55 31.7033 73.9946 31.8657C73.5204 32.0281 72.9649 32.0281 72.5043 31.9469C72.3417 31.8657 72.1927 31.7845 72.0301 31.7845C70.6889 31.6221 69.3477 31.2433 68.02 31.2433C67.6271 31.3245 67.2343 31.3921 66.9227 31.5545C66.5704 31.8116 66.2453 32.0957 65.9743 32.3934C65.9743 32.3934 65.9743 32.3934 65.9608 32.407C65.9066 32.4746 65.8389 32.5287 65.7847 32.5964C65.7576 32.637 65.7169 32.6776 65.6898 32.7182C65.6627 32.7452 65.6492 32.7723 65.6221 32.7993C65.3918 33.0835 65.1886 33.3947 64.9989 33.7059C64.9854 33.733 64.9718 33.7465 64.9583 33.7601C64.9447 33.8007 64.9176 33.8277 64.8905 33.8683C64.6331 34.3419 64.4434 34.829 64.2944 35.3161C63.7525 37.1158 63.9964 38.6583 64.3757 39.0372C64.4841 39.1454 66.9769 39.9167 68.711 40.688C69.5238 41.0533 70.0928 41.3239 70.567 41.6216H114.57V0H114.583Z" fill="#E1000F"/>
<path d="M72.4299 15.1807C72.7416 15.2618 73.2159 15.2618 73.2159 15.424C73.0533 16.0456 72.1183 16.2078 71.644 16.8429H71.4001C71.1698 17.005 71.2375 17.3969 71.0072 17.3969C70.7768 17.3159 70.5329 17.3969 70.3025 17.478C70.6142 17.7888 71.0072 18.0321 71.4814 17.951C71.5627 17.951 71.7118 18.1131 71.7118 18.2618C71.7118 18.2618 71.7931 18.2618 71.8744 18.1807C71.9557 18.1807 72.037 18.1807 72.037 18.2618V18.5726C71.8066 18.8834 71.4001 18.7348 71.0885 18.8023C71.7253 18.9645 72.3486 18.9645 72.9042 18.8023C73.3785 18.6402 72.9042 17.8564 73.2159 17.4645C73.0533 17.4645 73.2159 17.2213 73.0533 17.2213C73.2159 17.0591 73.3649 16.8294 73.5275 16.7483C73.6901 16.7483 73.9205 16.6672 74.0018 16.5051C74.0018 16.3429 73.6901 16.2753 73.7579 16.1132C74.2321 15.8024 74.6251 15.3294 74.4625 14.8564C74.3812 14.6132 73.7579 14.6132 73.3649 14.4645C72.972 14.3159 72.4977 14.4645 72.0234 14.5456C71.6305 14.5456 71.2375 14.7888 70.8445 14.8564C70.289 15.0186 69.8147 15.3294 69.354 15.6402C69.9096 15.4105 70.4516 15.3294 71.0885 15.1672C71.5627 15.1807 71.9557 15.0726 72.4299 15.1807" fill="#808080"/>
<path d="M4.29175 93.6486H10.2084V81.8696H13.9167C20.3334 81.8696 24.2501 78.5815 24.2501 73.2124C24.2501 67.8015 20.3334 64.5134 13.9167 64.5134H4.29175V93.6486ZM14.1667 69.4248C16.6667 69.4248 18.1667 70.9232 18.1667 73.1291C18.1667 75.5015 16.6667 76.9583 14.1667 76.9583H10.2084V69.4248H14.1667Z" fill="#161616"/>
<path d="M29.7686 93.6486H35.6853V81.8696H38.727L46.5186 93.6486H53.477L44.352 80.7459C47.352 79.3724 49.0603 76.7502 49.0603 73.2124C49.0603 67.8015 45.102 64.5134 38.6853 64.5134H29.7686V93.6486ZM39.0186 69.4248C41.5186 69.4248 42.977 70.9232 42.977 73.1291C42.977 75.5015 41.5186 76.9583 39.0186 76.9583H35.6853V69.4248H39.0186Z" fill="#161616"/>
<path d="M57.8497 93.6486H74.8497V88.7372H63.7664V81.2453H73.183V76.334H63.7664V69.4248H74.8497V64.5134H57.8497V93.6486Z" fill="#161616"/>
<path d="M82.35 93.6486H88.2667V72.7545L94.7667 83.6594H98.9333L105.433 72.7545V93.6486H111.35V64.5134H103.975L96.85 76.7502L89.725 64.5134H82.35V93.6486Z" fill="#161616"/>
<path d="M120.115 93.6486H126.032V64.5134H120.115V93.6486Z" fill="#161616"/>
<path d="M140.684 62.0161H146.101L141.393 56.3972H135.309L140.684 62.0161ZM134.809 93.6486H151.809V88.7372H140.726V81.2453H150.143V76.334H140.726V69.4248H151.809V64.5134H134.809V93.6486Z" fill="#161616"/>
<path d="M159.31 93.6486H165.226V81.8696H168.268L176.06 93.6486H183.018L173.893 80.7459C176.893 79.3724 178.601 76.7502 178.601 73.2124C178.601 67.8015 174.643 64.5134 168.226 64.5134H159.31V93.6486ZM168.56 69.4248C171.06 69.4248 172.518 70.9232 172.518 73.1291C172.518 75.5015 171.06 76.9583 168.56 76.9583H165.226V69.4248H168.56Z" fill="#161616"/>
<path d="M187.391 93.6486H204.391V88.7372H193.307V81.2453H202.724V76.334H193.307V69.4248H204.391V64.5134H187.391V93.6486Z" fill="#161616"/>
<path d="M4.29175 137.351H10.2084V116.457L16.7084 127.362H20.8751L27.3751 116.457V137.351H33.2917V108.216H25.9167L18.7917 120.453L11.6667 108.216H4.29175V137.351Z" fill="#161616"/>
<path d="M42.057 137.351H47.9737V108.216H42.057V137.351Z" fill="#161616"/>
<path d="M56.7511 137.351H62.6677V116.291L75.7094 137.351H83.2927V108.216H77.3761V129.277L64.3344 108.216H56.7511V137.351Z" fill="#161616"/>
<path d="M92.0749 137.351H97.9916V108.216H92.0749V137.351Z" fill="#161616"/>
<path d="M104.144 133.314C106.727 136.394 110.019 138.184 114.936 138.184C120.311 138.184 124.561 134.896 124.644 129.402C124.644 119.412 111.394 120.911 111.394 115.625C111.394 113.877 112.769 112.545 114.852 112.545C117.061 112.545 118.977 114.002 120.686 116.207L125.019 112.295C122.519 109.34 119.186 107.384 114.811 107.384C109.227 107.384 105.394 111.213 105.394 115.833C105.394 125.697 118.644 124.24 118.644 129.61C118.644 131.691 117.227 132.939 114.894 132.939C112.519 132.939 110.186 131.607 108.436 129.36L104.144 133.314Z" fill="#161616"/>
<path d="M128.269 113.585H137.269V137.351H143.186V113.585H152.186V108.216H128.269V113.585Z" fill="#161616"/>
<path d="M158.008 137.351H163.924V125.572H166.966L174.758 137.351H181.716L172.591 124.449C175.591 123.075 177.299 120.453 177.299 116.915C177.299 111.504 173.341 108.216 166.924 108.216H158.008V137.351ZM167.258 113.127C169.758 113.127 171.216 114.626 171.216 116.832C171.216 119.204 169.758 120.661 167.258 120.661H163.924V113.127H167.258Z" fill="#161616"/>
<path d="M186.089 137.351H203.089V132.44H192.005V124.948H201.422V120.037H192.005V113.127H203.089V108.216H186.089V137.351Z" fill="#161616"/>
<path fill-rule="evenodd" clip-rule="evenodd" d="M108.25 211.646L104.375 215.184H103.375L105.667 211.146H108.25V211.646ZM105.458 225.337H104.625C103.583 226.586 102.417 227.585 101.292 227.585C100.125 227.585 99.5416 226.877 99.5416 225.337C99.5416 224.713 99.6249 224.047 99.7499 223.464L106.542 221.217C107.875 218.054 106.292 216.681 104.417 216.681C101.208 216.681 97.5416 222.299 97.5416 226.794C97.5416 228.917 98.5416 230.082 100.125 230.082C101.958 230.04 103.875 228.251 105.458 225.337ZM103.128 218.513C104.044 218.513 104.836 219.22 104.419 220.844L100.211 221.967C100.878 219.97 102.128 218.513 103.128 218.513ZM89.8793 218.595H92.1293L88.546 228.417C88.2126 229.25 88.671 230.082 89.546 230.082C92.0877 230.082 95.1294 227.918 96.2961 224.838H95.6711C94.7544 226.128 92.7544 227.543 91.2543 227.793L94.5461 218.595H97.9211L98.3378 217.18H95.0461L96.2961 213.642H95.0044L92.671 217.18L89.8793 217.555V218.595ZM86.752 216.725C87.2103 216.725 87.8353 217.224 87.5436 218.14L83.5019 227.92C84.5436 227.754 85.6269 226.755 86.252 225.839H86.9186C85.9603 228.295 83.7936 230.084 81.9185 230.084C81.4602 230.084 80.7935 229.585 81.1269 228.669L84.8769 218.889C83.8353 219.055 82.7519 220.054 82.1269 220.97H81.5019C82.4602 218.473 84.7936 216.725 86.752 216.725ZM87.9214 214.226C88.7548 214.226 89.4631 213.56 89.4631 212.686C89.4631 211.854 88.7548 211.146 87.9214 211.146C87.0464 211.146 86.3797 211.854 86.3797 212.686C86.3797 213.519 87.0881 214.226 87.9214 214.226ZM69.7122 222.343C70.6289 220.345 70.2955 219.43 69.7122 219.43C69.2122 219.43 68.6288 219.971 68.0455 220.97H67.4205C68.3788 218.847 69.6289 216.725 71.0039 216.725C72.1706 216.725 72.5872 217.89 72.5872 219.18V221.011C72.7748 220.793 72.9574 220.579 73.1357 220.37L73.139 220.366L73.1416 220.363C74.902 218.3 76.2459 216.725 77.7957 216.725C79.004 216.725 79.629 217.474 79.629 218.597C79.629 219.263 79.4207 220.096 78.9624 220.97L75.504 227.92C76.5456 227.754 77.629 226.755 78.254 225.839H78.879C77.9207 228.336 75.5873 230.084 73.6289 230.084C72.7539 230.084 72.2539 229.169 72.6289 228.42L76.629 220.72C77.0873 219.846 77.1707 219.263 76.4623 219.263C75.504 219.263 73.2539 220.845 72.0456 222.302L69.4205 229.21C69.1289 229.918 68.8372 230.084 68.1705 230.084C67.0872 230.084 66.5455 229.377 67.0455 228.253L69.7122 222.343ZM67.0007 219.677C67.4591 218.096 67.2091 216.681 66.0007 216.681C64.4938 216.681 64.0219 217.675 62.5616 220.751L62.459 220.967V219.136C62.459 217.846 62.0423 216.681 60.8756 216.681C59.5006 216.681 58.2506 218.803 57.2922 220.926H57.9173C58.5839 219.968 59.2089 219.386 59.709 219.386C60.2923 219.386 60.6256 220.301 59.709 222.299L57.0422 228.209C56.5422 229.333 57.0839 230.04 58.1673 230.04C58.8339 230.04 59.1256 229.874 59.4173 229.166L62.0423 222.257C62.7923 221.342 63.459 220.551 64.2924 219.677H67.0007ZM53.8348 220.844C54.2515 219.22 53.4598 218.513 52.5431 218.513C51.5431 218.513 50.2931 219.97 49.6264 221.967L53.8348 220.844ZM54.8739 225.337H54.0406C52.9989 226.586 51.8322 227.585 50.7072 227.585C49.5405 227.585 48.9572 226.877 48.9572 225.337C48.9572 224.713 49.0405 224.047 49.1655 223.464L55.9573 221.217C57.2906 218.054 55.7073 216.681 53.8322 216.681C50.6238 216.681 46.9571 222.299 46.9571 226.794C46.9571 228.917 47.9571 230.082 49.5405 230.082C51.3739 230.04 53.2906 228.251 54.8739 225.337ZM41.5449 218.595H39.2949V217.555L42.0866 217.18L44.4199 213.642H45.7116L44.4616 217.18H47.7533L47.3367 218.595H43.9616L40.6699 227.793C42.1699 227.543 44.1699 226.128 45.0866 224.838H45.7116C44.5449 227.918 41.5032 230.082 38.9615 230.082C38.0865 230.082 37.6282 229.25 37.9615 228.417L41.5449 218.595ZM27.3801 226.212C27.3801 223.174 30.7551 219.095 32.6302 219.095C33.0469 219.095 33.4635 219.137 33.7969 219.262L31.8385 224.506C30.7135 225.879 28.9634 227.544 28.1301 227.544C27.6718 227.544 27.3801 227.128 27.3801 226.212ZM36.673 216.057L37.7146 216.141L34.0896 224.464C33.2146 226.462 33.5896 227.378 34.0896 227.378C34.5896 227.378 35.2146 226.795 35.8813 225.838H36.5063C35.5479 227.96 34.2979 230.083 32.9229 230.083C31.7562 230.083 31.0479 228.834 31.2562 226.587L31.3395 225.796L31.1126 226.113C29.6201 228.197 28.2695 230.083 26.8811 230.083C25.6728 230.083 25.0478 229.334 25.0478 228.21C25.0478 223.382 30.3395 217.223 35.2979 217.223H35.5063L36.673 216.057ZM27.1285 219.677C27.5869 218.096 27.3369 216.681 26.1285 216.681C24.6215 216.681 24.1497 217.675 22.6893 220.751L22.5868 220.967V219.136C22.5868 217.846 22.1701 216.681 21.0034 216.681C19.6284 216.681 18.3784 218.803 17.42 220.926H18.045C18.7117 219.968 19.3367 219.386 19.7951 219.386C20.3784 219.386 20.7118 220.301 19.7951 222.299L17.1284 228.251C16.6284 229.374 17.17 230.082 18.2534 230.082C18.9201 230.082 19.2117 229.915 19.5034 229.208L22.1284 222.299C22.8785 221.383 23.5451 220.593 24.3785 219.719H27.1285V219.677ZM9.9585 228.831L9.70849 229.58H0L0.250004 228.789C3.25005 228.248 3.75006 227.998 5.00008 224.627L7.70846 217.386C8.91681 214.014 8.66681 213.765 6.04177 213.224L6.29177 212.474H18.917L18.167 216.512H17.2503C17.2503 214.098 17.0003 213.473 14.7086 213.473H14.1252C11.8752 213.473 11.5835 213.806 10.9585 215.554L9.16682 220.424H11.7919C13.5419 220.424 14.2086 219.342 15.0002 217.927H15.9169L13.7502 223.836H12.8335C13.0419 222.047 13.0419 221.339 11.4169 221.339H8.79181L7.58346 224.669C6.27727 228.134 6.65053 228.205 9.76088 228.793C9.82557 228.806 9.89144 228.818 9.9585 228.831Z" fill="black"/>
<path fill-rule="evenodd" clip-rule="evenodd" d="M18.2077 179.805L14.3327 182.594V182.636H13.3327L15.6244 179.306H18.2077V179.805ZM45.2947 199.325L51.503 182.843L51.2947 182.594L47.003 183.093V183.593L47.8364 184.217C48.5478 184.77 48.3594 185.285 47.7691 186.9L47.6697 187.172L42.9197 199.825C42.5447 200.574 43.0447 201.49 43.9197 201.49C45.878 201.49 47.9614 199.7 48.9197 197.244H48.2947C47.628 198.16 46.2947 199.159 45.2947 199.325ZM73.75 186.631L77.625 183.093V182.594H75.0417L72.75 186.631H73.75ZM73.9973 196.745H74.8306C73.289 199.7 71.3723 201.49 69.539 201.49C67.9557 201.49 66.9557 200.324 66.9557 198.202C66.9557 193.707 70.6223 188.088 73.8306 188.088C75.664 188.088 77.2889 189.461 75.9556 192.624L69.1223 194.872C68.9973 195.455 68.914 196.121 68.914 196.745C68.914 198.285 69.4973 198.992 70.664 198.992C71.789 198.992 72.9556 197.994 73.9973 196.745ZM73.787 192.25C74.2036 190.668 73.412 189.961 72.4953 189.961C71.537 189.961 70.287 191.418 69.5786 193.374L73.787 192.25ZM61.5369 190.043H59.2869V189.002L62.0786 188.628L64.4119 185.09H65.7036L64.4536 188.628H67.7452L67.3286 190.043H63.9536L60.6619 199.241C62.1619 198.992 64.1619 197.576 65.0786 196.286H65.7036C64.5369 199.366 61.4953 201.53 58.9536 201.53C58.0786 201.53 57.6203 200.698 57.9536 199.866L61.5369 190.043ZM56.9533 189.543C57.2033 188.628 56.62 188.128 56.12 188.128C54.1617 188.128 51.8284 189.918 50.87 192.374H51.495C52.12 191.458 53.2034 190.459 54.245 190.293L50.495 200.074C50.1617 200.989 50.8284 201.489 51.2867 201.489C53.1617 201.489 55.3283 199.699 56.2867 197.243H55.6617C55.0367 198.159 53.9534 199.158 52.9117 199.324L56.9533 189.543ZM58.8731 184.134C58.8731 184.966 58.1648 185.674 57.3314 185.674C56.4981 185.674 55.7898 184.966 55.7898 184.134C55.7898 183.301 56.4564 182.594 57.3314 182.594C58.1648 182.594 58.8731 183.301 58.8731 184.134ZM37.8359 190.543C35.9609 190.543 32.5859 194.622 32.5859 197.661C32.5859 198.576 32.8775 198.992 33.3775 198.992C34.1692 198.992 35.9192 197.328 37.0442 195.954L39.0025 190.71C38.6275 190.585 38.2525 190.543 37.8359 190.543ZM42.9202 187.588L41.8786 187.505L40.7119 188.67H40.5036C35.5452 188.67 30.2536 194.83 30.2536 199.659C30.2536 200.782 30.8786 201.531 32.0869 201.531C33.4752 201.531 34.8258 199.645 36.3183 197.561L36.5452 197.244L36.4619 198.035C36.2536 200.283 36.9619 201.531 38.1286 201.531C39.5036 201.531 40.7536 199.409 41.7119 197.286H41.0869C40.4202 198.243 39.7952 198.826 39.2952 198.826C38.7952 198.826 38.4202 197.91 39.2952 195.913L42.9202 187.588ZM21.9179 201.074C20.1263 201.782 18.8763 202.614 18.8763 203.904C18.8763 205.111 20.0013 205.611 22.3346 205.611C25.4596 205.611 27.1679 204.695 27.1679 203.488C27.1679 202.947 26.4596 202.697 24.5846 202.073C23.3763 201.698 22.5013 201.365 21.9179 201.074ZM23.9985 195.954C23.1652 195.954 22.8735 195.247 22.8735 194.498C22.8735 192.084 24.0402 189.087 25.9152 189.087C26.7485 189.087 27.0402 189.794 27.0402 190.544C26.9985 192.999 25.8319 195.954 23.9985 195.954ZM25.5861 199.867C27.8777 200.574 29.2944 201.115 29.2944 202.697C29.2944 204.736 25.5444 207.15 21.0027 207.109C18.3778 207.109 16.1278 206.401 16.1278 204.695C16.1278 203.071 17.6278 201.739 21.2944 200.657C20.7944 200.324 20.5861 199.908 20.5861 199.325C20.5861 198.327 21.5027 197.536 23.0861 196.787C21.5444 196.578 20.5444 195.413 20.5444 193.707C20.5444 191.084 22.7111 188.088 26.1277 188.088C26.8361 188.088 27.4611 188.254 27.9611 188.587H31.711L31.2944 190.002H29.0861C29.211 190.377 29.2944 190.793 29.2944 191.251C29.2944 193.79 27.2527 196.703 24.0027 196.87C23.1694 197.328 22.7527 197.952 22.7527 198.451C22.7527 199.039 23.4343 199.238 24.9407 199.677C25.1411 199.735 25.3561 199.798 25.5861 199.867ZM12.375 192.75C13.9999 192.75 14.0416 193.457 13.7916 195.247H14.7083L16.8749 189.337H15.9583C15.1666 190.752 14.4999 191.834 12.75 191.834H9.16663L10.9166 186.964C11.5416 185.216 11.8333 184.883 14.0833 184.883H15.6666C17.9583 184.883 18.2083 185.507 18.2083 187.921H19.1249L19.8749 183.884H6.29164L6.04164 184.633C8.66663 185.174 8.91663 185.424 7.70831 188.796L4.99998 196.079C3.74999 199.451 3.24999 199.7 0.208333 200.241L0 201.032H15.0833L17.7916 196.745H16.7499C14.9999 198.452 13.25 200.033 9.8333 200.033C6.07523 200.033 6.14217 199.85 7.26976 196.755C7.34234 196.556 7.41935 196.345 7.49997 196.121L8.74997 192.791H12.375V192.75Z" fill="black"/>
<path fill-rule="evenodd" clip-rule="evenodd" d="M24.8296 157.08C25.6629 157.08 26.3713 156.372 26.3713 155.54C26.3713 154.708 25.6629 154 24.8296 154C23.9546 154 23.288 154.708 23.288 155.54C23.288 156.414 23.9546 157.08 24.8296 157.08ZM37.1672 162.323C37.1672 160.325 36.6672 159.576 35.2506 159.576C33.5006 159.576 31.8756 161.449 30.2507 163.696L33.7506 154.332L33.5423 154.041L29.2507 154.54V155.039L30.084 155.664C30.8095 156.227 30.5992 156.791 29.9812 158.447L29.9173 158.619L26.1257 168.524C25.7924 169.356 25.4174 170.355 25.4174 170.605C25.4174 171.77 27.0007 172.894 28.459 172.894C31.709 172.935 37.1672 166.942 37.1672 162.323ZM73.2917 158.078L77.1667 154.54V154.041H74.5834L72.2917 158.078H73.2917ZM73.5427 168.191H74.376C72.7927 171.146 70.876 172.935 69.0427 172.894C67.4594 172.894 66.4594 171.77 66.4594 169.647C66.4594 165.153 70.1261 159.534 73.3343 159.534C75.1677 159.534 76.7926 160.908 75.4593 164.071L68.6677 166.318C68.5427 166.901 68.4594 167.567 68.4594 168.191C68.4594 169.731 69.0427 170.438 70.2094 170.438C71.3344 170.438 72.501 169.439 73.5427 168.191ZM73.3303 163.696C73.747 162.115 72.9553 161.407 72.0387 161.407C71.0387 161.407 69.7887 162.864 69.122 164.82L73.3303 163.696ZM61.0342 161.493H58.7842V160.452L61.5758 160.078L63.9091 156.54H65.2008L63.9508 160.078H67.2424L66.8258 161.493H63.4508L60.1592 170.69C61.6592 170.441 63.6591 169.026 64.5758 167.736H65.2008C64.0341 170.815 60.9925 172.979 58.4509 172.979C57.5759 172.979 57.1176 172.147 57.4509 171.315L61.0342 161.493ZM57.6254 162.575C58.0838 160.993 57.8338 159.578 56.6255 159.578C55.1185 159.578 54.6467 160.572 53.1864 163.649L53.0838 163.865V162.034C53.0838 160.744 52.6672 159.578 51.5005 159.578C50.1255 159.578 48.8756 161.701 47.9172 163.823H48.5422C49.2089 162.866 49.8339 162.283 50.2922 162.283C50.8755 162.283 51.2089 163.199 50.2922 165.197L47.6256 171.107C47.1256 172.23 47.6672 172.938 48.7506 172.938C49.4172 172.938 49.7089 172.771 50.0005 172.064L52.6255 165.155C53.3755 164.24 54.0422 163.449 54.8755 162.575H57.6254ZM44.4183 163.696C44.8349 162.115 44.0433 161.407 43.1266 161.407C42.1266 161.407 40.9183 162.864 40.21 164.82L44.4183 163.696ZM45.4573 168.191H44.624C43.5823 169.439 42.4157 170.438 41.2907 170.438C40.1241 170.438 39.5407 169.731 39.5407 168.191C39.5407 167.567 39.6241 166.901 39.7491 166.318L46.5406 164.071C47.874 160.908 46.2906 159.534 44.4157 159.534C41.2074 159.534 37.5408 165.153 37.5408 169.647C37.5408 171.77 38.5408 172.894 40.1241 172.894C41.9574 172.935 43.874 171.146 45.4573 168.191ZM27.9607 169.774C27.9607 170.315 28.919 170.939 29.5856 170.939C32.2939 170.939 34.8356 166.07 34.7939 163.365C34.7939 162.449 34.3356 162.074 33.7106 162.074C32.7106 162.074 30.8773 163.573 29.7106 164.988L28.6273 167.901C28.2523 168.858 27.9607 169.607 27.9607 169.774ZM23.5865 159.578C24.0865 159.578 24.6698 160.078 24.4198 160.993L20.4199 170.774C21.4615 170.607 22.5448 169.608 23.1698 168.693H23.7948C22.8365 171.148 20.6699 172.938 18.7949 172.938C18.2949 172.938 17.6282 172.438 17.9616 171.523L21.7115 161.742C20.6699 161.909 19.5865 162.908 18.9615 163.823H18.3365C19.2949 161.368 21.6282 159.578 23.5865 159.578ZM6.29158 155.25H15.2498L14.9998 156.041C11.9582 156.582 11.4582 156.831 10.2082 160.202L7.54156 167.527C6.24991 171.023 6.58324 171.439 8.87488 171.439C11.7062 171.439 13.5627 169.384 15.1838 167.589C15.3042 167.456 15.4233 167.324 15.5414 167.194H16.5831L13.6248 172.438H0L0.249996 171.689C3.24995 171.148 3.74995 170.898 4.99993 167.527L7.70823 160.161C8.91654 156.79 8.66654 156.54 6.04158 155.999L6.29158 155.25Z" fill="black"/>
<rect x="329.167" y="64.5135" width="4.16667" height="72.8378" fill="#161616"/>
<path d="M346.325 83.2434H353.2C358.75 83.2434 362.5 79.2227 362.5 74.5028C362.5 69.7829 358.75 65.7623 353.2 65.7623H346.325V83.2434ZM353.25 68.9838C356.5 68.9838 358.85 71.3812 358.85 74.5028C358.85 77.5995 356.5 80.0218 353.25 80.0218H349.875V68.9838H353.25Z" fill="#161616"/>
<path d="M367.099 68.4594C368.224 68.4594 369.149 67.5104 369.149 66.3866C369.149 65.2628 368.224 64.3138 367.099 64.3138C365.974 64.3138 365.024 65.2628 365.024 66.3866C365.024 67.5104 365.974 68.4594 367.099 68.4594ZM365.499 83.2434H368.674V70.657H365.499V83.2434Z" fill="#161616"/>
<path d="M372.481 83.2434H375.656V75.1771C376.131 74.378 377.131 73.5289 378.681 73.5289C379.256 73.5289 379.681 73.6038 380.081 73.7037V70.5821C379.781 70.4822 379.406 70.4072 378.981 70.4072C377.556 70.4072 376.481 71.0565 375.656 71.9056V70.657H372.481V83.2434Z" fill="#161616"/>
<path d="M393.7 81.1956L391.425 79.3975C390.75 80.2965 389.55 80.8959 388.175 80.8959C386.2 80.8959 384.75 79.9469 384.45 77.5995H393.275C393.375 77.1749 393.475 76.5256 393.475 75.8264C393.475 72.53 391.175 70.1575 387.675 70.1575C383.55 70.1575 381.2 73.2292 381.2 76.9502C381.2 80.6212 383.725 83.7428 388.2 83.7428C390.575 83.7428 392.525 82.7689 393.7 81.1956ZM387.6 72.7547C389.375 72.7547 390.3 74.0283 390.35 75.302H384.55C384.9 73.6537 385.975 72.7547 387.6 72.7547Z" fill="#161616"/>
<path d="M402.53 80.7461C400.405 80.7461 398.88 79.1728 398.88 76.9502C398.88 74.7525 400.405 73.1543 402.48 73.1543C403.78 73.1543 404.78 73.7287 405.38 74.6027L407.855 72.7048C406.68 71.1564 404.83 70.1575 402.53 70.1575C398.18 70.1575 395.58 73.2791 395.58 76.9502C395.58 80.6212 398.18 83.7428 402.53 83.7428C404.83 83.7428 406.68 82.7439 407.855 81.1956L405.38 79.2976C404.78 80.1717 403.78 80.7461 402.53 80.7461Z" fill="#161616"/>
<path d="M411.147 78.6483C411.147 81.72 412.647 83.4931 415.797 83.4931C416.847 83.4931 417.597 83.3682 418.222 83.0935V80.3215C417.797 80.4963 417.222 80.5962 416.347 80.5962C415.097 80.5962 414.347 80.0468 414.347 78.6483V73.5039H418.197V70.657H414.347V67.5104H411.147V70.657H408.797V73.5039H411.147V78.6483Z" fill="#161616"/>
<path d="M422.641 68.4594C423.766 68.4594 424.691 67.5104 424.691 66.3866C424.691 65.2628 423.766 64.3138 422.641 64.3138C421.516 64.3138 420.566 65.2628 420.566 66.3866C420.566 67.5104 421.516 68.4594 422.641 68.4594ZM421.041 83.2434H424.216V70.657H421.041V83.2434Z" fill="#161616"/>
<path d="M434.023 70.1575C429.923 70.1575 427.123 73.1792 427.123 76.9502C427.123 80.7211 429.923 83.7428 434.023 83.7428C438.123 83.7428 440.923 80.7211 440.923 76.9502C440.923 73.1792 438.123 70.1575 434.023 70.1575ZM434.073 80.7461C431.973 80.7461 430.423 79.1478 430.423 76.9502C430.423 74.7525 431.973 73.1543 434.073 73.1543C436.098 73.1543 437.623 74.7525 437.623 76.9502C437.623 79.1228 436.098 80.7461 434.073 80.7461Z" fill="#161616"/>
<path d="M443.819 83.2434H446.994V75.0272C447.469 74.2281 448.319 73.1543 449.919 73.1543C451.469 73.1543 452.419 74.2031 452.419 75.8763V83.2434H455.619V75.7515C455.619 72.0305 453.444 70.1575 450.719 70.1575C449.044 70.1575 447.869 70.8068 446.994 71.6559V70.657H443.819V83.2434Z" fill="#161616"/>
<path d="M347.25 93.4323C348.375 93.4323 349.3 92.4834 349.3 91.3596C349.3 90.2358 348.375 89.2868 347.25 89.2868C346.125 89.2868 345.175 90.2358 345.175 91.3596C345.175 92.4834 346.125 93.4323 347.25 93.4323ZM345.65 108.216H348.825V95.63H345.65V108.216Z" fill="#161616"/>
<path d="M352.632 108.216H355.807V100C356.282 99.2011 357.132 98.1273 358.732 98.1273C360.282 98.1273 361.232 99.1761 361.232 100.849V108.216H364.432V100.724C364.432 97.0035 362.257 95.1305 359.532 95.1305C357.857 95.1305 356.682 95.7798 355.807 96.6289V95.63H352.632V108.216Z" fill="#161616"/>
<path d="M368.838 103.621C368.838 106.693 370.338 108.466 373.488 108.466C374.538 108.466 375.288 108.341 375.913 108.066V105.294C375.488 105.469 374.913 105.569 374.038 105.569C372.788 105.569 372.038 105.02 372.038 103.621V98.4769H375.888V95.63H372.038V92.4834H368.838V95.63H366.488V98.4769H368.838V103.621Z" fill="#161616"/>
<path d="M390.087 106.169L387.812 104.37C387.137 105.27 385.937 105.869 384.562 105.869C382.587 105.869 381.137 104.92 380.837 102.572H389.662C389.762 102.148 389.862 101.499 389.862 100.799C389.862 97.5029 387.562 95.1305 384.062 95.1305C379.937 95.1305 377.587 98.2022 377.587 101.923C377.587 105.594 380.112 108.716 384.587 108.716C386.962 108.716 388.912 107.742 390.087 106.169ZM383.987 97.7277C385.762 97.7277 386.687 99.0013 386.737 100.275H380.937C381.287 98.6267 382.362 97.7277 383.987 97.7277Z" fill="#161616"/>
<path d="M392.964 108.216H396.139V100.15C396.614 99.3509 397.614 98.5018 399.164 98.5018C399.739 98.5018 400.164 98.5768 400.564 98.6767V95.555C400.264 95.4551 399.889 95.3802 399.464 95.3802C398.039 95.3802 396.964 96.0295 396.139 96.8786V95.63H392.964V108.216Z" fill="#161616"/>
<path d="M403.121 108.216H406.296V100C406.771 99.2011 407.521 98.1273 408.971 98.1273C410.396 98.1273 411.221 99.0762 411.221 100.6V108.216H414.421V100.475C414.421 100.275 414.421 100.1 414.396 99.9253C414.896 99.0762 415.646 98.1273 417.021 98.1273C418.446 98.1273 419.271 99.0762 419.271 100.6V108.216H422.471V100.475C422.471 96.9285 420.421 95.1305 417.821 95.1305C415.696 95.1305 414.496 96.0795 413.596 97.1783C412.771 95.8297 411.371 95.1305 409.771 95.1305C408.221 95.1305 407.146 95.7548 406.296 96.5789V95.63H403.121V108.216Z" fill="#161616"/>
<path d="M427.694 93.4323C428.819 93.4323 429.744 92.4834 429.744 91.3596C429.744 90.2358 428.819 89.2868 427.694 89.2868C426.569 89.2868 425.619 90.2358 425.619 91.3596C425.619 92.4834 426.569 93.4323 427.694 93.4323ZM426.094 108.216H429.269V95.63H426.094V108.216Z" fill="#161616"/>
<path d="M433.077 108.216H436.252V100C436.727 99.2011 437.577 98.1273 439.177 98.1273C440.727 98.1273 441.677 99.1761 441.677 100.849V108.216H444.877V100.724C444.877 97.0035 442.702 95.1305 439.977 95.1305C438.302 95.1305 437.127 95.7798 436.252 96.6289V95.63H433.077V108.216Z" fill="#161616"/>
<path d="M450.082 93.4323C451.207 93.4323 452.132 92.4834 452.132 91.3596C452.132 90.2358 451.207 89.2868 450.082 89.2868C448.957 89.2868 448.007 90.2358 448.007 91.3596C448.007 92.4834 448.957 93.4323 450.082 93.4323ZM448.482 108.216H451.657V95.63H448.482V108.216Z" fill="#161616"/>
<path d="M454.194 106.393C455.394 107.817 456.994 108.716 459.244 108.716C461.619 108.716 463.744 107.267 463.794 104.62C463.794 100.275 457.769 101.024 457.769 98.8764C457.769 98.2271 458.244 97.6777 459.244 97.6777C460.219 97.6777 461.044 98.327 461.694 99.1262L463.794 97.2782C462.894 96.0545 461.144 95.1305 459.219 95.1305C456.594 95.1305 454.719 96.8037 454.719 99.0263C454.719 103.446 460.744 102.622 460.744 104.82C460.744 105.569 460.219 106.169 459.194 106.169C457.994 106.169 457.069 105.469 456.294 104.495L454.194 106.393Z" fill="#161616"/>
<path d="M467.715 103.621C467.715 106.693 469.215 108.466 472.365 108.466C473.415 108.466 474.165 108.341 474.79 108.066V105.294C474.365 105.469 473.79 105.569 472.915 105.569C471.665 105.569 470.915 105.02 470.915 103.621V98.4769H474.765V95.63H470.915V92.4834H467.715V95.63H465.365V98.4769H467.715V103.621Z" fill="#161616"/>
<path d="M484.689 93.6321L487.689 89.4866H484.239L481.639 93.6321H484.689ZM488.964 106.169L486.689 104.37C486.014 105.27 484.814 105.869 483.439 105.869C481.464 105.869 480.014 104.92 479.714 102.572H488.539C488.639 102.148 488.739 101.499 488.739 100.799C488.739 97.5029 486.439 95.1305 482.939 95.1305C478.814 95.1305 476.464 98.2022 476.464 101.923C476.464 105.594 478.989 108.716 483.464 108.716C485.839 108.716 487.789 107.742 488.964 106.169ZM482.864 97.7277C484.639 97.7277 485.564 99.0013 485.614 100.275H479.814C480.164 98.6267 481.239 97.7277 482.864 97.7277Z" fill="#161616"/>
<path d="M491.841 108.216H495.016V100.15C495.491 99.3509 496.491 98.5018 498.041 98.5018C498.616 98.5018 499.041 98.5768 499.441 98.6767V95.555C499.141 95.4551 498.766 95.3802 498.341 95.3802C496.916 95.3802 495.841 96.0295 495.016 96.8786V95.63H491.841V108.216Z" fill="#161616"/>
<path d="M503.598 93.4323C504.723 93.4323 505.648 92.4834 505.648 91.3596C505.648 90.2358 504.723 89.2868 503.598 89.2868C502.473 89.2868 501.523 90.2358 501.523 91.3596C501.523 92.4834 502.473 93.4323 503.598 93.4323ZM501.998 108.216H505.173V95.63H501.998V108.216Z" fill="#161616"/>
<path d="M520.58 106.169L518.305 104.37C517.63 105.27 516.43 105.869 515.055 105.869C513.08 105.869 511.63 104.92 511.33 102.572H520.155C520.255 102.148 520.355 101.499 520.355 100.799C520.355 97.5029 518.055 95.1305 514.555 95.1305C510.43 95.1305 508.08 98.2022 508.08 101.923C508.08 105.594 510.605 108.716 515.08 108.716C517.455 108.716 519.405 107.742 520.58 106.169ZM514.48 97.7277C516.255 97.7277 517.18 99.0013 517.23 100.275H511.43C511.78 98.6267 512.855 97.7277 514.48 97.7277Z" fill="#161616"/>
<path d="M523.458 108.216H526.633V89.4866H523.458V108.216Z" fill="#161616"/>
<path d="M530.44 108.216H533.615V89.4866H530.44V108.216Z" fill="#161616"/>
<path d="M549.022 106.169L546.747 104.37C546.072 105.27 544.872 105.869 543.497 105.869C541.522 105.869 540.072 104.92 539.772 102.572H548.597C548.697 102.148 548.797 101.499 548.797 100.799C548.797 97.5029 546.497 95.1305 542.997 95.1305C538.872 95.1305 536.522 98.2022 536.522 101.923C536.522 105.594 539.047 108.716 543.522 108.716C545.897 108.716 547.847 107.742 549.022 106.169ZM542.922 97.7277C544.697 97.7277 545.622 99.0013 545.672 100.275H539.872C540.222 98.6267 541.297 97.7277 542.922 97.7277Z" fill="#161616"/>
<path d="M344.75 126.896C344.75 130.567 347.175 133.689 351.15 133.689C352.85 133.689 354.075 133.164 355.05 132.19V133.189H358.25V114.46H355.05V121.602C354.075 120.628 352.85 120.103 351.15 120.103C347.175 120.103 344.75 123.225 344.75 126.896ZM348.075 126.896C348.075 124.698 349.45 123.1 351.6 123.1C353.025 123.1 354.2 123.7 355.05 124.848V128.944C354.2 130.093 353.025 130.692 351.6 130.692C349.45 130.692 348.075 129.094 348.075 126.896Z" fill="#161616"/>
<path d="M370.356 127.745C370.356 129.568 369.406 130.692 367.681 130.692C365.931 130.692 364.981 129.568 364.981 127.745V120.603H361.781V127.595C361.781 131.366 363.956 133.689 367.656 133.689C371.356 133.689 373.556 131.366 373.556 127.595V120.603H370.356V127.745Z" fill="#161616"/>
<path d="M383.809 133.189H386.984V124.973C387.459 124.174 388.309 123.1 389.909 123.1C391.459 123.1 392.409 124.149 392.409 125.822V133.189H395.609V125.697C395.609 121.976 393.434 120.103 390.709 120.103C389.034 120.103 387.859 120.753 386.984 121.602V120.603H383.809V133.189Z" fill="#161616"/>
<path d="M407.514 127.745C407.514 129.568 406.564 130.692 404.839 130.692C403.089 130.692 402.139 129.568 402.139 127.745V120.603H398.939V127.595C398.939 131.366 401.114 133.689 404.814 133.689C408.514 133.689 410.714 131.366 410.714 127.595V120.603H407.514V127.745Z" fill="#161616"/>
<path d="M414.229 133.189H417.404V124.973C417.879 124.174 418.629 123.1 420.079 123.1C421.504 123.1 422.329 124.049 422.329 125.573V133.189H425.529V125.448C425.529 125.248 425.529 125.073 425.504 124.898C426.004 124.049 426.754 123.1 428.129 123.1C429.554 123.1 430.379 124.049 430.379 125.573V133.189H433.579V125.448C433.579 121.902 431.529 120.103 428.929 120.103C426.804 120.103 425.604 121.052 424.704 122.151C423.879 120.803 422.479 120.103 420.879 120.103C419.329 120.103 418.254 120.728 417.404 121.552V120.603H414.229V133.189Z" fill="#161616"/>
<path d="M444.528 118.605L447.528 114.46H444.078L441.478 118.605H444.528ZM448.803 131.142L446.528 129.343C445.853 130.242 444.653 130.842 443.278 130.842C441.303 130.842 439.853 129.893 439.553 127.545H448.378C448.478 127.121 448.578 126.472 448.578 125.772C448.578 122.476 446.278 120.103 442.778 120.103C438.653 120.103 436.303 123.175 436.303 126.896C436.303 130.567 438.828 133.689 443.303 133.689C445.678 133.689 447.628 132.715 448.803 131.142ZM442.703 122.701C444.478 122.701 445.403 123.974 445.453 125.248H439.653C440.003 123.6 441.078 122.701 442.703 122.701Z" fill="#161616"/>
<path d="M451.68 133.189H454.855V125.123C455.33 124.324 456.33 123.475 457.88 123.475C458.455 123.475 458.88 123.55 459.28 123.65V120.528C458.98 120.428 458.605 120.353 458.18 120.353C456.755 120.353 455.68 121.002 454.855 121.852V120.603H451.68V133.189Z" fill="#161616"/>
<path d="M463.437 118.405C464.562 118.405 465.487 117.456 465.487 116.333C465.487 115.209 464.562 114.26 463.437 114.26C462.312 114.26 461.362 115.209 461.362 116.333C461.362 117.456 462.312 118.405 463.437 118.405ZM461.837 133.189H465.012V120.603H461.837V133.189Z" fill="#161616"/>
<path d="M467.919 126.896C467.919 130.567 470.319 133.689 474.319 133.689C476.019 133.689 477.244 133.139 478.219 132.165V139.333H481.419V120.603H478.219V121.627C477.244 120.653 476.019 120.103 474.319 120.103C470.319 120.103 467.919 123.225 467.919 126.896ZM471.219 126.896C471.219 124.698 472.594 123.1 474.744 123.1C476.169 123.1 477.369 123.725 478.219 124.898V128.894C477.444 130.043 476.219 130.692 474.744 130.692C472.594 130.692 471.219 129.094 471.219 126.896Z" fill="#161616"/>
<path d="M493.525 127.745C493.525 129.568 492.575 130.692 490.85 130.692C489.1 130.692 488.15 129.568 488.15 127.745V120.603H484.95V127.595C484.95 131.366 487.125 133.689 490.825 133.689C494.525 133.689 496.725 131.366 496.725 127.595V120.603H493.525V127.745Z" fill="#161616"/>
<path d="M511.84 131.142L509.565 129.343C508.89 130.242 507.69 130.842 506.315 130.842C504.34 130.842 502.89 129.893 502.59 127.545H511.415C511.515 127.121 511.615 126.472 511.615 125.772C511.615 122.476 509.315 120.103 505.815 120.103C501.69 120.103 499.34 123.175 499.34 126.896C499.34 130.567 501.865 133.689 506.34 133.689C508.715 133.689 510.665 132.715 511.84 131.142ZM505.74 122.701C507.515 122.701 508.44 123.974 508.49 125.248H502.69C503.04 123.6 504.115 122.701 505.74 122.701Z" fill="#161616"/>
</svg>
