<svg
   version="1.1"
   x="0px"
   y="0px"
   viewBox="0 0 194.4 217.1"
   style="enable-background:new 0 0 194.4 217.1;"
   xml:space="preserve"
   id="svg786"
   sodipodi:docname="Premier_ministre_français.svg"
   inkscape:version="1.2 (dc2aedaf03, 2022-05-15)"
   xmlns:inkscape="http://www.inkscape.org/namespaces/inkscape"
   xmlns:sodipodi="http://sodipodi.sourceforge.net/DTD/sodipodi-0.dtd"
   xmlns="http://www.w3.org/2000/svg"
   xmlns:svg="http://www.w3.org/2000/svg"><defs
   id="defs790"><clipPath
     clipPathUnits="userSpaceOnUse"
     id="clipPath56"><path
       d="M 0,0 H 595.276 V 841.89 H 0 Z"
       id="path54" /></clipPath><clipPath
     clipPathUnits="userSpaceOnUse"
     id="clipPath86"><path
       d="M 0,0 H 595.276 V 841.89 H 0 Z"
       id="path84" /></clipPath><clipPath
     clipPathUnits="userSpaceOnUse"
     id="clipPath114"><path
       d="M 0,0 H 595.276 V 841.89 H 0 Z"
       id="path112" /></clipPath><clipPath
     clipPathUnits="userSpaceOnUse"
     id="clipPath130"><path
       d="M 0,0 H 595.276 V 841.89 H 0 Z"
       id="path128" /></clipPath><clipPath
     clipPathUnits="userSpaceOnUse"
     id="clipPath146"><path
       d="M 0,0 H 595.276 V 841.89 H 0 Z"
       id="path144" /></clipPath></defs><sodipodi:namedview
   id="namedview788"
   pagecolor="#ffffff"
   bordercolor="#000000"
   borderopacity="0.25"
   inkscape:showpageshadow="2"
   inkscape:pageopacity="0.0"
   inkscape:pagecheckerboard="0"
   inkscape:deskcolor="#d1d1d1"
   showgrid="false"
   inkscape:zoom="5.2373453"
   inkscape:cx="131.8416"
   inkscape:cy="80.288767"
   inkscape:window-width="1920"
   inkscape:window-height="991"
   inkscape:window-x="-9"
   inkscape:window-y="-9"
   inkscape:window-maximized="1"
   inkscape:current-layer="svg786" />
<style
   type="text/css"
   id="style773">
	.st0{fill:#FFFFFF;}
	.st1{fill:#000091;}
	.st2{fill:#E1000F;}
	.st3{fill:#9C9B9B;}
</style>
<g
   id="Fond">
	<rect
   x="0"
   class="st0"
   width="194.4"
   height="217.1"
   id="rect775" />
</g><g
   id="g381"
   transform="matrix(2.2368527,0,0,-2.2368527,-81.243473,1803.2981)"><g
     id="g50"><g
       id="g52"
       clip-path="url(#clipPath56)"><g
         id="g58"
         transform="translate(50.1489,765.0346)"><path
           d="M 0,0 H -1.919 V 9.459 H 1.203 C 2.248,9.459 3.067,9.207 3.662,8.702 4.256,8.198 4.554,7.508 4.554,6.635 4.554,5.761 4.254,5.074 3.655,4.574 3.056,4.074 2.238,3.824 1.203,3.824 H 0 Z M 2.581,6.662 C 2.581,7.031 2.464,7.324 2.23,7.54 1.995,7.756 1.68,7.864 1.284,7.864 H 0 V 5.419 h 1.284 c 0.405,0 0.723,0.11 0.952,0.331 0.23,0.22 0.345,0.524 0.345,0.912"
           style="fill:#231f20;fill-opacity:1;fill-rule:nonzero;stroke:none"
           id="path60" /></g><g
         id="g62"
         transform="translate(58.1347,765.0346)"><path
           d="M 0,0 H -1.919 V 9.459 H 0.973 C 2.018,9.459 2.84,9.207 3.439,8.702 4.038,8.198 4.337,7.508 4.337,6.635 4.337,6.058 4.205,5.56 3.939,5.142 3.673,4.723 3.297,4.4 2.811,4.175 L 5.77,0 H 3.513 L 0.986,3.824 H 0.973 0 Z M 2.365,6.662 C 2.365,7.031 2.25,7.324 2.02,7.54 1.79,7.756 1.477,7.864 1.081,7.864 H 0 V 5.419 h 1.081 c 0.405,0 0.721,0.11 0.946,0.331 0.225,0.22 0.338,0.524 0.338,0.912"
           style="fill:#231f20;fill-opacity:1;fill-rule:nonzero;stroke:none"
           id="path64" /></g></g></g><g
     id="g66"
     transform="translate(65.053,765.0346)"><path
       d="M 0,0 V 9.459 H 5.513 V 7.864 H 1.919 V 5.621 H 4.973 V 4.027 H 1.919 V 1.595 H 5.513 V 0 Z"
       style="fill:#231f20;fill-opacity:1;fill-rule:nonzero;stroke:none"
       id="path68" /></g><g
     id="g70"
     transform="translate(74.6469,765.0346)"><path
       d="M 0,0 H -1.919 V 9.459 H 0.473 L 2.784,5.486 5.094,9.459 H 7.486 V 0 H 5.567 V 6.783 L 3.459,3.243 H 2.108 L 0,6.783 Z"
       style="fill:#231f20;fill-opacity:1;fill-rule:nonzero;stroke:none"
       id="path72" /></g><path
     d="M 86.619,765.035 H 84.7 v 9.459 h 1.919 z"
     style="fill:#231f20;fill-opacity:1;fill-rule:nonzero;stroke:none"
     id="path74" /><g
     id="g76"
     transform="translate(89.1996,765.0346)"><path
       d="M 0,0 V 9.459 H 5.513 V 7.864 H 1.919 V 5.621 H 4.973 V 4.027 H 1.919 V 1.595 H 5.513 V 0 Z M 3.662,10.27 H 1.905 l -1.743,1.824 h 1.973 z"
       style="fill:#231f20;fill-opacity:1;fill-rule:nonzero;stroke:none"
       id="path78" /></g><g
     id="g80"><g
       id="g82"
       clip-path="url(#clipPath86)"><g
         id="g88"
         transform="translate(98.7934,765.0346)"><path
           d="M 0,0 H -1.919 V 9.459 H 0.973 C 2.018,9.459 2.84,9.207 3.439,8.702 4.038,8.198 4.338,7.508 4.338,6.635 4.338,6.058 4.205,5.56 3.939,5.142 3.673,4.723 3.297,4.4 2.811,4.175 L 5.77,0 H 3.513 L 0.986,3.824 H 0.973 0 Z M 2.365,6.662 C 2.365,7.031 2.25,7.324 2.02,7.54 1.79,7.756 1.477,7.864 1.081,7.864 H 0 V 5.419 h 1.081 c 0.405,0 0.721,0.11 0.946,0.331 0.225,0.22 0.338,0.524 0.338,0.912"
           style="fill:#231f20;fill-opacity:1;fill-rule:nonzero;stroke:none"
           id="path90" /></g></g></g><g
     id="g92"
     transform="translate(105.712,765.0346)"><path
       d="M 0,0 V 9.459 H 5.513 V 7.864 H 1.919 V 5.621 H 4.973 V 4.027 H 1.919 V 1.595 H 5.513 V 0 Z"
       style="fill:#231f20;fill-opacity:1;fill-rule:nonzero;stroke:none"
       id="path94" /></g><g
     id="g96"
     transform="translate(50.1489,751.3358)"><path
       d="M 0,0 H -1.919 V 9.459 H 0.473 L 2.784,5.486 5.094,9.459 H 7.486 V 0 H 5.567 V 6.783 L 3.459,3.243 H 2.108 L 0,6.783 Z"
       style="fill:#231f20;fill-opacity:1;fill-rule:nonzero;stroke:none"
       id="path98" /></g><path
     d="m 62.188,751.336 h -1.919 v 9.459 h 1.919 z"
     style="fill:#231f20;fill-opacity:1;fill-rule:nonzero;stroke:none"
     id="path100" /><g
     id="g102"
     transform="translate(66.7556,751.3358)"><path
       d="M 0,0 H -1.919 V 9.459 H 0.54 L 4.77,2.621 V 9.459 H 6.689 V 0 H 4.229 L 0,6.837 Z"
       style="fill:#231f20;fill-opacity:1;fill-rule:nonzero;stroke:none"
       id="path104" /></g><path
     d="m 78.011,751.336 h -1.919 v 9.459 h 1.919 z"
     style="fill:#231f20;fill-opacity:1;fill-rule:nonzero;stroke:none"
     id="path106" /><g
     id="g108"><g
       id="g110"
       clip-path="url(#clipPath114)"><g
         id="g116"
         transform="translate(83.3083,751.0654)"><path
           d="M 0,0 C -0.739,0 -1.394,0.128 -1.966,0.385 -2.538,0.642 -3.049,1.041 -3.5,1.581 l 1.392,1.284 c 0.288,-0.37 0.615,-0.656 0.98,-0.858 0.365,-0.203 0.736,-0.304 1.114,-0.304 0.379,0 0.676,0.096 0.892,0.29 0.217,0.194 0.325,0.457 0.325,0.791 0,0.261 -0.102,0.495 -0.304,0.702 C 0.696,3.693 0.243,3.95 -0.459,4.257 -1,4.491 -1.396,4.684 -1.649,4.838 c -0.252,0.153 -0.468,0.315 -0.648,0.486 -0.27,0.252 -0.471,0.538 -0.601,0.858 -0.131,0.32 -0.196,0.678 -0.196,1.074 0,0.775 0.29,1.426 0.871,1.953 0.581,0.527 1.309,0.79 2.182,0.79 0.649,0 1.25,-0.133 1.804,-0.398 C 2.317,9.335 2.819,8.936 3.27,8.405 L 1.865,7.135 C 1.558,7.531 1.248,7.828 0.932,8.027 0.617,8.225 0.297,8.324 -0.027,8.324 -0.36,8.324 -0.631,8.229 -0.838,8.04 -1.045,7.851 -1.149,7.612 -1.149,7.324 -1.149,7.063 -1.047,6.833 -0.845,6.635 -0.642,6.437 -0.194,6.184 0.5,5.878 1.04,5.644 1.439,5.45 1.696,5.297 1.953,5.144 2.171,4.982 2.351,4.811 2.622,4.549 2.822,4.257 2.952,3.932 3.083,3.608 3.148,3.248 3.148,2.851 3.139,1.995 2.842,1.306 2.257,0.784 1.671,0.261 0.919,0 0,0"
           style="fill:#231f20;fill-opacity:1;fill-rule:nonzero;stroke:none"
           id="path118" /></g></g></g><g
     id="g120"
     transform="translate(90.4158,751.3358)"><path
       d="M 0,0 V 7.716 H -2.919 V 9.459 H 4.838 V 7.716 H 1.919 V 0 Z"
       style="fill:#231f20;fill-opacity:1;fill-rule:nonzero;stroke:none"
       id="path122" /></g><g
     id="g124"><g
       id="g126"
       clip-path="url(#clipPath130)"><g
         id="g132"
         transform="translate(98.8611,751.3358)"><path
           d="M 0,0 H -1.919 V 9.459 H 0.973 C 2.018,9.459 2.84,9.206 3.439,8.702 4.038,8.197 4.338,7.508 4.338,6.635 4.338,6.058 4.205,5.56 3.939,5.141 3.673,4.723 3.297,4.401 2.811,4.175 L 5.77,0 H 3.513 L 0.986,3.824 H 0.973 0 Z M 2.365,6.662 C 2.365,7.031 2.25,7.324 2.02,7.54 1.79,7.756 1.477,7.864 1.081,7.864 H 0 V 5.419 h 1.081 c 0.405,0 0.721,0.11 0.946,0.331 0.225,0.22 0.338,0.524 0.338,0.912"
           style="fill:#231f20;fill-opacity:1;fill-rule:nonzero;stroke:none"
           id="path134" /></g></g></g><g
     id="g136"
     transform="translate(105.8472,751.3358)"><path
       d="M 0,0 V 9.459 H 5.513 V 7.864 H 1.919 V 5.621 H 4.973 V 4.027 H 1.919 V 1.595 H 5.513 V 0 Z"
       style="fill:#231f20;fill-opacity:1;fill-rule:nonzero;stroke:none"
       id="path138" /></g><g
     id="g140"><g
       id="g142"
       clip-path="url(#clipPath146)"><g
         id="g148"
         transform="translate(79.1337,725.0482)"><path
           d="m 0,0 c 0.258,0 0.481,-0.195 0.363,-0.69 l -1.2,-0.279 C -0.627,-0.411 -0.279,0 0,0 M 0.662,-1.931 H 0.425 c -0.299,-0.356 -0.62,-0.634 -0.941,-0.634 -0.328,0 -0.495,0.195 -0.495,0.634 0,0.181 0.021,0.362 0.056,0.53 l 1.931,0.634 c 0.376,0.892 -0.077,1.283 -0.607,1.283 -0.913,0 -1.951,-1.527 -1.951,-2.865 0,-0.6 0.285,-0.927 0.732,-0.927 0.522,0 1.066,0.508 1.512,1.345 M 0.279,0.871 1.638,2.14 V 2.287 H 0.906 L 0.07,0.871 Z M -3.89,-0.021 h 0.641 l -1.017,-2.781 c -0.091,-0.237 0.035,-0.474 0.279,-0.474 0.578,0 1.512,0.571 1.84,1.352 h -0.181 c -0.258,-0.272 -0.753,-0.634 -1.178,-0.711 l 0.934,2.614 h 0.955 l 0.118,0.397 H -2.426 L -2.07,1.38 H -2.44 L -3.102,0.376 -3.89,0.265 Z m -0.864,0.133 c 0.076,0.257 -0.098,0.404 -0.23,0.404 -0.558,0 -1.22,-0.502 -1.485,-1.206 h 0.181 c 0.181,0.258 0.488,0.544 0.774,0.592 l -1.067,-2.774 c -0.097,-0.258 0.098,-0.404 0.23,-0.404 0.53,0 1.151,0.508 1.416,1.206 h -0.182 c -0.181,-0.258 -0.488,-0.544 -0.774,-0.593 z m 0.195,1.394 c 0.251,0 0.46,0.202 0.46,0.46 0,0.251 -0.209,0.46 -0.46,0.46 -0.258,0 -0.46,-0.209 -0.46,-0.46 0,-0.258 0.202,-0.46 0.46,-0.46 m -6.142,-4.267 c -0.139,-0.313 0.007,-0.515 0.314,-0.515 0.188,0 0.272,0.048 0.349,0.25 l 0.739,1.959 c 0.341,0.419 1.045,0.865 1.324,0.865 0.202,0 0.174,-0.167 0.042,-0.418 l -1.136,-2.182 c -0.112,-0.217 0.035,-0.474 0.279,-0.474 0.557,0 1.219,0.501 1.484,1.206 h -0.181 c -0.181,-0.258 -0.488,-0.544 -0.774,-0.593 l 0.976,1.973 c 0.126,0.251 0.189,0.488 0.189,0.676 0,0.321 -0.182,0.53 -0.516,0.53 -0.481,0 -0.969,-0.544 -1.548,-1.213 v 0.516 c 0,0.369 -0.118,0.697 -0.453,0.697 -0.209,0 -0.411,-0.181 -0.6,-0.439 v -0.07 c 0.363,0.021 0.523,-0.523 0.265,-1.095 z m -0.013,2.426 c 0.132,0.454 0.062,0.851 -0.286,0.851 -0.412,0 -0.516,-0.314 -0.934,-1.213 v 0.516 c 0,0.369 -0.119,0.697 -0.454,0.697 -0.39,0 -0.745,-0.607 -1.017,-1.206 h 0.181 c 0.188,0.272 0.362,0.432 0.502,0.432 0.167,0 0.258,-0.258 0,-0.83 l -0.753,-1.673 c -0.139,-0.313 0.007,-0.515 0.314,-0.515 0.188,0 0.272,0.048 0.348,0.25 l 0.739,1.959 c 0.209,0.258 0.398,0.481 0.635,0.732 z M -14.995,0 c 0.258,0 0.481,-0.195 0.363,-0.69 l -1.199,-0.279 C -15.622,-0.411 -15.274,0 -14.995,0 m 0.662,-1.931 h -0.237 c -0.299,-0.356 -0.62,-0.634 -0.941,-0.634 -0.327,0 -0.495,0.195 -0.495,0.634 0,0.181 0.021,0.362 0.056,0.53 l 1.931,0.634 c 0.377,0.892 -0.077,1.283 -0.606,1.283 -0.914,0 -1.952,-1.527 -1.952,-2.865 0,-0.6 0.286,-0.927 0.732,-0.927 0.523,0 1.066,0.508 1.512,1.345 m -4.552,1.91 h 0.642 l -1.018,-2.781 c -0.091,-0.237 0.035,-0.474 0.279,-0.474 0.578,0 1.512,0.571 1.84,1.352 h -0.181 c -0.258,-0.272 -0.753,-0.634 -1.178,-0.711 l 0.934,2.614 h 0.955 l 0.118,0.397 h -0.927 l 0.356,1.004 h -0.37 l -0.662,-1.004 -0.788,-0.111 z m -3.52,-2.168 c 0,0.857 0.955,2.022 1.492,2.022 0.118,0 0.23,-0.014 0.327,-0.042 l -0.557,-1.485 c -0.321,-0.39 -0.816,-0.864 -1.046,-0.864 -0.132,0 -0.216,0.111 -0.216,0.369 m 2.935,2.865 -0.293,0.021 -0.328,-0.321 h -0.069 c -1.59,0 -2.963,-1.784 -2.963,-3.081 0,-0.362 0.223,-0.571 0.571,-0.571 0.412,0 0.816,0.585 1.269,1.213 l -0.021,-0.224 c -0.055,-0.641 0.14,-0.989 0.474,-0.989 0.391,0 0.746,0.606 1.018,1.206 h -0.181 c -0.188,-0.272 -0.363,-0.433 -0.502,-0.433 -0.146,0 -0.251,0.265 0,0.83 z m -3.388,-1.011 c 0.132,0.454 0.063,0.851 -0.286,0.851 -0.411,0 -0.516,-0.314 -0.934,-1.213 v 0.516 c 0,0.369 -0.119,0.697 -0.453,0.697 -0.391,0 -0.746,-0.607 -1.018,-1.206 h 0.181 c 0.188,0.272 0.363,0.432 0.502,0.432 0.167,0 0.258,-0.258 0,-0.83 l -0.753,-1.673 c -0.139,-0.313 0.007,-0.515 0.314,-0.515 0.188,0 0.272,0.048 0.348,0.25 l 0.739,1.959 c 0.21,0.258 0.398,0.481 0.635,0.732 z m -5.34,-2.802 0.07,0.216 c -0.928,0.174 -1.046,0.174 -0.677,1.185 l 0.377,1.039 h 1.025 c 0.46,0 0.467,-0.188 0.397,-0.69 h 0.265 l 0.613,1.68 h -0.265 c -0.23,-0.398 -0.411,-0.69 -0.913,-0.69 h -1.011 l 0.537,1.471 c 0.168,0.467 0.265,0.564 0.893,0.564 h 0.446 c 0.648,0 0.725,-0.174 0.725,-0.829 h 0.258 l 0.216,1.143 h -3.848 l -0.07,-0.216 c 0.746,-0.154 0.816,-0.223 0.467,-1.185 l -0.837,-2.287 c -0.348,-0.955 -0.495,-1.032 -1.352,-1.185 l -0.063,-0.216 z"
           style="fill:#231f20;fill-opacity:1;fill-rule:nonzero;stroke:none"
           id="path150" /></g><g
         id="g152"
         transform="translate(69.7995,733.7622)"><path
           d="M 0,0 C 0.258,0 0.481,-0.195 0.362,-0.69 L -0.837,-0.969 C -0.627,-0.411 -0.279,0 0,0 M 0.662,-1.931 H 0.425 c -0.3,-0.356 -0.62,-0.634 -0.941,-0.634 -0.328,0 -0.495,0.195 -0.495,0.634 0,0.181 0.021,0.362 0.056,0.53 l 1.931,0.634 c 0.376,0.892 -0.077,1.283 -0.607,1.283 -0.913,0 -1.951,-1.527 -1.951,-2.865 0,-0.6 0.285,-0.927 0.731,-0.927 0.523,0 1.067,0.508 1.513,1.345 M 0.279,0.871 1.638,2.14 V 2.287 H 0.906 L 0.07,0.871 Z M -3.89,-0.021 h 0.641 l -1.017,-2.781 c -0.091,-0.237 0.035,-0.474 0.279,-0.474 0.578,0 1.512,0.571 1.84,1.352 h -0.181 c -0.258,-0.272 -0.753,-0.634 -1.178,-0.711 l 0.934,2.614 h 0.955 l 0.118,0.397 H -2.426 L -2.07,1.38 H -2.44 L -3.102,0.376 -3.89,0.265 Z m -0.864,0.133 c 0.076,0.257 -0.098,0.404 -0.23,0.404 -0.558,0 -1.22,-0.502 -1.485,-1.206 h 0.181 c 0.181,0.258 0.488,0.544 0.774,0.592 l -1.067,-2.774 c -0.097,-0.258 0.098,-0.404 0.23,-0.404 0.53,0 1.151,0.508 1.416,1.206 h -0.182 c -0.181,-0.258 -0.488,-0.544 -0.774,-0.593 z m 0.195,1.394 c 0.251,0 0.46,0.202 0.46,0.46 0,0.251 -0.209,0.46 -0.46,0.46 -0.258,0 -0.46,-0.209 -0.46,-0.46 0,-0.258 0.202,-0.46 0.46,-0.46 M -8.268,-2.663 -6.323,2.433 -6.385,2.51 -7.605,2.37 V 2.224 L -7.368,2.043 C -7.152,1.875 -7.222,1.715 -7.417,1.199 l -1.52,-4.001 c -0.112,-0.217 0.035,-0.474 0.279,-0.474 0.558,0 1.15,0.501 1.415,1.206 h -0.181 c -0.181,-0.258 -0.558,-0.544 -0.844,-0.593 m -3.694,0.474 c 0,0.858 0.955,2.022 1.491,2.022 0.119,0 0.23,-0.014 0.328,-0.042 l -0.558,-1.485 c -0.32,-0.39 -0.815,-0.864 -1.045,-0.864 -0.133,0 -0.216,0.111 -0.216,0.369 M -9.028,0.676 -9.32,0.697 -9.648,0.376 h -0.07 c -1.589,0 -2.962,-1.784 -2.962,-3.081 0,-0.362 0.223,-0.571 0.571,-0.571 0.412,0 0.816,0.585 1.269,1.213 l -0.021,-0.224 c -0.056,-0.641 0.139,-0.989 0.474,-0.989 0.39,0 0.746,0.606 1.018,1.206 H -9.55 c -0.189,-0.272 -0.363,-0.433 -0.502,-0.433 -0.147,0 -0.251,0.265 0,0.83 z m -7.096,-4.629 c 0,0.37 0.355,0.6 0.864,0.802 0.168,-0.084 0.419,-0.174 0.753,-0.286 0.53,-0.174 0.732,-0.244 0.732,-0.404 0,-0.342 -0.578,-0.6 -1.366,-0.6 -0.662,0 -0.983,0.14 -0.983,0.488 m 1.443,2.252 c -0.23,0 -0.321,0.195 -0.321,0.418 0,0.621 0.335,1.534 0.858,1.534 0.23,0 0.32,-0.195 0.32,-0.418 0,-0.621 -0.334,-1.534 -0.857,-1.534 m 1.513,-1.91 c 0,0.446 -0.398,0.606 -1.046,0.802 -0.558,0.167 -0.809,0.216 -0.809,0.397 0,0.146 0.119,0.321 0.356,0.446 0.913,0.049 1.506,0.872 1.506,1.562 0,0.146 -0.028,0.272 -0.077,0.383 h 0.774 l 0.118,0.397 h -1.227 c -0.146,0.091 -0.32,0.14 -0.495,0.14 -0.969,0 -1.596,-0.851 -1.596,-1.541 0,-0.523 0.335,-0.85 0.739,-0.927 -0.453,-0.202 -0.704,-0.439 -0.704,-0.718 0,-0.16 0.056,-0.272 0.188,-0.376 -1.046,-0.307 -1.457,-0.656 -1.457,-1.151 0,-0.481 0.634,-0.683 1.387,-0.683 1.276,0 2.343,0.69 2.343,1.269 m -4.873,2.984 c 0.46,0 0.467,-0.189 0.397,-0.691 h 0.265 l 0.613,1.68 h -0.264 c -0.23,-0.397 -0.412,-0.69 -0.914,-0.69 h -1.01 l 0.508,1.402 c 0.168,0.467 0.265,0.557 0.893,0.557 h 0.446 c 0.648,0 0.725,-0.174 0.725,-0.822 h 0.258 l 0.216,1.143 h -3.848 l -0.07,-0.216 c 0.746,-0.154 0.816,-0.223 0.467,-1.185 l -0.836,-2.287 c -0.349,-0.955 -0.495,-1.032 -1.353,-1.185 l -0.063,-0.216 h 4.281 l 0.767,1.213 h -0.293 c -0.488,-0.46 -1.102,-0.899 -1.959,-0.899 -1.136,0 -1.032,0.048 -0.655,1.087 l 0.404,1.109 z m 0.557,2.921 1.36,0.934 v 0.146 h -0.823 L -17.7,2.294 Z"
           style="fill:#231f20;fill-opacity:1;fill-rule:nonzero;stroke:none"
           id="path154" /></g><g
         id="g156"
         transform="translate(69.3463,742.4763)"><path
           d="M 0,0 C 0.258,0 0.481,-0.195 0.362,-0.69 L -0.837,-0.969 C -0.627,-0.411 -0.279,0 0,0 M 0.662,-1.931 H 0.425 c -0.3,-0.356 -0.62,-0.634 -0.941,-0.634 -0.328,0 -0.495,0.195 -0.495,0.634 0,0.181 0.021,0.362 0.056,0.53 l 1.931,0.634 c 0.376,0.892 -0.077,1.283 -0.607,1.283 -0.913,0 -1.951,-1.527 -1.951,-2.865 0,-0.6 0.285,-0.927 0.731,-0.927 0.523,0 1.067,0.508 1.513,1.345 M 0.279,0.871 1.638,2.14 V 2.287 H 0.906 L 0.07,0.871 Z m -3.995,-0.892 h 0.509 l -1.017,-2.781 c -0.091,-0.237 0.034,-0.474 0.278,-0.474 0.579,0 1.513,0.571 1.841,1.352 h -0.181 c -0.258,-0.272 -0.753,-0.634 -1.179,-0.711 l 0.935,2.614 h 0.955 l 0.118,0.397 H -2.384 L -2.029,1.38 H -2.398 L -3.06,0.376 -3.716,0.265 Z m -0.501,-0.314 c 0.132,0.454 0.062,0.851 -0.286,0.851 -0.412,0 -0.516,-0.314 -0.934,-1.213 v 0.516 c 0,0.369 -0.119,0.697 -0.454,0.697 -0.39,0 -0.745,-0.607 -1.017,-1.206 h 0.181 c 0.188,0.272 0.362,0.432 0.502,0.432 0.167,0 0.258,-0.258 0,-0.83 l -0.753,-1.673 c -0.139,-0.313 0.007,-0.515 0.314,-0.515 0.188,0 0.272,0.048 0.348,0.25 l 0.739,1.959 c 0.209,0.258 0.398,0.481 0.635,0.732 z M -8.498,0 c 0.258,0 0.481,-0.195 0.363,-0.69 L -9.334,-0.969 C -9.125,-0.411 -8.777,0 -8.498,0 m 0.662,-1.931 h -0.237 c -0.299,-0.356 -0.62,-0.634 -0.941,-0.634 -0.327,0 -0.495,0.195 -0.495,0.634 0,0.181 0.021,0.362 0.056,0.53 l 1.931,0.634 c 0.377,0.892 -0.076,1.283 -0.606,1.283 -0.914,0 -1.952,-1.527 -1.952,-2.865 0,-0.6 0.286,-0.927 0.732,-0.927 0.523,0 1.066,0.508 1.512,1.345 m -4.733,-0.781 c -0.188,0 -0.46,0.174 -0.46,0.328 0,0.049 0.084,0.265 0.188,0.537 l 0.314,0.829 c 0.335,0.398 0.843,0.823 1.129,0.823 0.175,0 0.307,-0.112 0.307,-0.37 0,-0.76 -0.711,-2.147 -1.478,-2.147 m 2.196,2.454 c 0,0.565 -0.209,0.774 -0.599,0.774 -0.488,0 -0.949,-0.516 -1.409,-1.143 l 1.165,3.06 -0.063,0.077 -1.22,-0.14 V 2.224 l 0.237,-0.181 c 0.216,-0.168 0.146,-0.342 -0.049,-0.844 l -1.255,-3.235 c -0.09,-0.237 -0.202,-0.515 -0.202,-0.592 0,-0.335 0.453,-0.648 0.864,-0.648 0.949,0 2.531,1.707 2.531,3.018 m -3.792,0.37 c 0.076,0.257 -0.098,0.404 -0.23,0.404 -0.558,0 -1.22,-0.502 -1.485,-1.206 h 0.181 c 0.181,0.258 0.488,0.544 0.774,0.592 l -1.067,-2.774 c -0.097,-0.258 0.098,-0.404 0.23,-0.404 0.53,0 1.151,0.508 1.416,1.206 h -0.182 c -0.181,-0.258 -0.488,-0.544 -0.774,-0.593 z m 0.195,1.394 c 0.251,0 0.46,0.202 0.46,0.46 0,0.251 -0.209,0.46 -0.46,0.46 -0.258,0 -0.46,-0.209 -0.46,-0.46 0,-0.258 0.202,-0.46 0.46,-0.46 m -2.809,0.446 h -2.538 l -0.07,-0.216 c 0.746,-0.154 0.816,-0.223 0.467,-1.185 l -0.822,-2.287 c -0.349,-0.955 -0.495,-1.032 -1.353,-1.185 l -0.062,-0.216 h 3.862 l 0.836,1.492 h -0.292 c -0.475,-0.523 -1.032,-1.178 -1.89,-1.178 -0.648,0 -0.725,0.111 -0.376,1.087 l 0.822,2.287 c 0.342,0.955 0.495,1.031 1.353,1.185 z"
           style="fill:#231f20;fill-opacity:1;fill-rule:nonzero;stroke:none"
           id="path158" /></g><g
         id="g160"
         transform="translate(62.5849,782.3557)"><path
           d="M 0,0 C 0.136,0.136 0.273,0.282 0.41,0.428 H 0.407 C 0.661,0.716 0.91,0.99 1.205,1.243 1.294,1.323 1.382,1.394 1.465,1.451 1.489,1.475 1.489,1.523 1.513,1.547 1.393,1.499 1.321,1.403 1.202,1.355 1.178,1.355 1.154,1.379 1.178,1.403 1.263,1.467 1.348,1.531 1.433,1.595 1.428,1.594 1.423,1.594 1.417,1.594 1.393,1.594 1.393,1.618 1.393,1.642 1.082,1.69 0.843,1.475 0.627,1.283 0.579,1.259 0.532,1.307 0.508,1.307 0.149,1.188 -0.114,0.877 -0.473,0.733 V 0.781 C -0.617,0.733 -0.756,0.646 -0.904,0.613 -1.119,0.566 -1.311,0.589 -1.502,0.589 -1.792,0.56 -2.082,0.497 -2.372,0.435 -2.381,0.432 -2.389,0.431 -2.397,0.428 -2.553,0.386 -2.7,0.328 -2.843,0.249 -2.849,0.246 -2.854,0.243 -2.859,0.239 -2.871,0.224 -2.883,0.21 -2.894,0.198 -2.946,0.141 -2.99,0.089 -3.058,0.055 -3.205,-0.02 -3.325,-0.15 -3.455,-0.256 c -0.009,-0.008 -0.023,-0.012 -0.038,-0.012 -0.129,-0.123 -0.255,-0.248 -0.386,-0.369 -0.009,-0.009 -0.046,-0.014 -0.073,-0.009 10e-4,0.001 0.002,0.001 0.002,0.002 0.005,0.008 0.009,0.015 0.014,0.023 0.02,0.034 0.041,0.067 0.061,0.101 0.024,0.037 0.047,0.074 0.071,0.111 0.033,0.05 0.067,0.098 0.102,0.146 0.009,0.012 0.007,0.023 -10e-4,0.031 -0.007,0.008 -0.02,0.013 -0.033,0.013 0.12,0.115 0.261,0.214 0.402,0.299 0,0.002 0,0.003 0,0.004 -0.016,-0.005 -0.039,0.008 -0.027,0.025 0.015,0.021 0.027,0.043 0.041,0.065 0.003,0.007 0.005,0.014 0.008,0.021 C -3.318,0.201 -3.324,0.208 -3.33,0.214 -3.369,0.189 -3.41,0.165 -3.443,0.135 -3.5,0.084 -3.545,-0.022 -3.632,-0.021 c -0.006,0 -0.022,0.001 -0.036,0.005 -0.01,0.002 -0.019,0.005 -0.025,0.009 10e-4,0.002 0.002,0.004 0.003,0.006 10e-4,0.002 0.002,0.004 0.003,0.006 0.002,0.002 0.003,0.004 0.004,0.006 0.004,0.007 0.007,0.014 0.011,0.021 0.004,0.007 0.008,0.014 0.012,0.02 0.003,0.006 0.006,0.012 0.009,0.017 0.006,0.01 0.011,0.02 0.017,0.03 0.004,0.008 0.008,0.015 0.012,0.022 0.011,0.018 0.021,0.035 0.031,0.053 0.005,0.008 0.01,0.017 0.015,0.025 0.009,0.015 0.017,0.029 0.025,0.044 0.012,0.02 0,0.036 -0.017,0.043 0.044,0.057 0.098,0.105 0.163,0.142 h -0.007 c 0.092,0.046 0.183,0.103 0.275,0.154 0.013,0.011 0.026,0.023 0.04,0.034 -0.137,-0.046 -0.26,-0.108 -0.381,-0.188 0,0 -0.032,-0.013 -0.041,-0.022 0,0 -0.027,-0.01 -0.059,0.022 -0.003,0.005 -0.006,0.01 -0.006,0.018 0.024,0.048 0.096,0.072 0.144,0.12 0.024,0 0.047,0 0.047,-0.024 0.766,0.598 1.819,0.454 2.704,0.765 0.072,0.048 0.144,0.096 0.216,0.144 0.119,0.048 0.215,0.167 0.359,0.239 0.191,0.144 0.335,0.311 0.406,0.55 0,0.024 -0.024,0.048 -0.024,0.048 C -0.043,1.953 -0.402,1.69 -0.784,1.499 -1.287,1.236 -1.837,1.283 -2.364,1.212 c 0.024,0.047 0.072,0.047 0.12,0.047 0,0.072 0.048,0.096 0.096,0.144 h 0.072 c 0.023,0 0.023,0.048 0.047,0.048 0.048,0 0.12,0.024 0.096,0.024 -0.072,0.096 -0.215,-0.072 -0.335,0 0.048,0.048 0.024,0.119 0.072,0.143 H -2.1 c 0,0.048 0.047,0.096 0.047,0.096 0.359,0.215 0.694,0.383 1.029,0.574 -0.071,0 -0.119,-0.071 -0.191,-0.024 0.048,0 0,0.072 0.048,0.072 0.263,0.072 0.478,0.216 0.742,0.311 -0.096,0 -0.168,-0.071 -0.264,0 0.048,0.024 0.072,0.072 0.144,0.072 v 0.072 c 0,0.024 0.024,0.024 0.048,0.024 -0.024,0 -0.048,0.024 -0.048,0.024 0.024,0.048 0.096,0.024 0.143,0.071 -0.023,0 -0.071,0 -0.071,0.024 0.071,0.096 0.191,0.12 0.311,0.144 -0.024,0.048 -0.096,0 -0.096,0.048 0,0.024 0.024,0.024 0.048,0.024 h -0.048 c -0.048,0.024 -0.024,0.072 -0.024,0.095 0.144,0.168 0.144,0.383 0.215,0.575 -0.023,0 -0.047,0 -0.047,0.024 -0.24,-0.263 -0.623,-0.359 -0.981,-0.455 h -0.12 c -0.12,-0.048 -0.287,-0.048 -0.407,0.024 -0.096,0.048 -0.143,0.12 -0.239,0.191 -0.192,0.12 -0.383,0.216 -0.598,0.288 -0.598,0.191 -1.221,0.287 -1.843,0.263 0.263,0.143 0.554,0.155 0.838,0.239 0.407,0.12 0.789,0.263 1.22,0.239 -0.072,0.024 -0.167,0 -0.239,0 C -2.818,4.657 -3.153,4.562 -3.512,4.49 -3.751,4.442 -3.967,4.346 -4.206,4.298 -4.35,4.25 -4.421,4.107 -4.589,4.131 v 0.072 c 0.239,0.287 0.527,0.574 0.909,0.598 0.431,0.072 0.838,0 1.269,-0.048 0.311,-0.024 0.598,-0.096 0.909,-0.168 0.119,0 0.143,-0.191 0.239,-0.215 0.144,-0.048 0.287,0 0.431,-0.096 0,0.048 -0.024,0.096 0,0.144 0.095,0.096 0.215,-0.024 0.311,0.024 0.191,0.12 -0.168,0.335 -0.263,0.502 0,0.024 0.024,0.048 0.024,0.048 0.191,-0.167 0.335,-0.359 0.574,-0.478 0.119,-0.048 0.407,-0.12 0.359,0.024 -0.12,0.263 -0.359,0.478 -0.551,0.717 v 0.096 c -0.047,0 -0.047,0.024 -0.071,0.048 v 0.096 c -0.096,0.048 -0.072,0.143 -0.12,0.215 -0.072,0.12 -0.024,0.287 -0.072,0.431 -0.048,0.143 -0.072,0.263 -0.096,0.407 -0.071,0.406 -0.167,0.765 -0.215,1.148 -0.048,0.455 0.263,0.814 0.479,1.22 0.167,0.287 0.359,0.575 0.67,0.766 0.071,0.287 0.263,0.526 0.454,0.766 0.191,0.233 0.509,0.376 0.739,0.478 0.334,0.15 0.636,0.243 0.636,0.243 H -14.396 V -1.493 h 11.63 c 0.455,0.328 0.91,0.483 1.546,0.797 0.3,0.148 0.987,0.463 1.22,0.696 m -3.68,1.714 c -0.047,0 -0.143,-0.024 -0.119,0.024 0.024,0.12 0.191,0.12 0.287,0.168 0.048,0.023 0.119,0.071 0.167,0.047 0.048,-0.071 0.12,-0.047 0.168,-0.095 C -3.321,1.714 -3.512,1.786 -3.68,1.714 M -7.341,2.24 c 0,0 -0.023,0.024 -0.023,0.048 0.311,0.407 0.55,0.79 0.765,1.221 0.311,0.167 0.57,0.411 0.814,0.67 0.407,0.43 0.837,0.813 1.34,1.053 0.191,0.071 0.43,0.047 0.622,-0.024 -0.072,-0.096 -0.192,-0.072 -0.287,-0.144 -0.024,0 -0.048,0 -0.072,0.024 0.024,0.024 0.024,0.048 0.024,0.072 C -4.397,4.896 -4.732,4.777 -4.924,4.466 -5.067,4.227 -5.163,3.915 -5.474,3.844 -5.57,3.82 -5.45,3.915 -5.498,3.892 -6.24,3.437 -6.766,2.887 -7.341,2.24 m 1.986,1.58 C -5.378,3.772 -5.405,3.767 -5.426,3.724 -5.45,3.676 -5.474,3.652 -5.522,3.628 c -0.024,0 -0.048,0 -0.048,0.024 0.024,0.096 0.096,0.192 0.192,0.216 0.023,0 0.023,-0.024 0.023,-0.048 M -4.243,0.235 C -4.254,0.208 -4.279,0.186 -4.302,0.165 -4.272,0.159 -4.251,0.146 -4.271,0.128 -4.326,0.077 -4.379,0.026 -4.452,0.001 -4.457,0 -4.472,-0.003 -4.489,-0.004 -4.518,-0.032 -4.548,-0.06 -4.578,-0.087 c -0.029,-0.025 -0.16,-0.007 -0.12,0.028 0.061,0.054 0.117,0.113 0.177,0.167 0.034,0.031 0.07,0.061 0.1,0.096 0.016,0.019 0.03,0.038 0.051,0.053 0.02,0.014 0.146,0.025 0.127,-0.022 M -4.672,0.432 C -4.674,0.431 -4.676,0.43 -4.678,0.428 -4.768,0.365 -4.857,0.301 -4.951,0.246 -5.054,0.187 -5.161,0.142 -5.267,0.091 -5.268,0.093 -5.269,0.095 -5.27,0.097 -5.278,0.108 -5.295,0.115 -5.31,0.107 -5.401,0.058 -5.478,-0.007 -5.551,-0.077 -5.562,-0.087 -5.574,-0.098 -5.584,-0.109 -5.585,-0.11 -5.586,-0.11 -5.586,-0.111 -5.587,-0.112 -5.588,-0.112 -5.588,-0.113 -5.6,-0.124 -5.611,-0.135 -5.622,-0.147 c -0.002,-0.001 -0.003,-0.002 -0.004,-0.004 -10e-4,0 -10e-4,-0.001 -0.002,-0.002 -0.017,-0.017 -0.033,-0.034 -0.052,-0.056 -0.012,-0.014 -0.016,-0.023 -0.032,-0.033 -0.015,-0.01 -0.056,-0.01 -0.052,0.018 0,0.001 0,0.003 0,0.004 -0.014,-0.007 -0.028,-0.014 -0.042,-0.021 -0.013,-0.007 -0.025,-0.014 -0.038,-0.021 -0.005,0.002 -0.01,0.003 -0.016,0.003 -0.006,-0.001 -0.012,-0.002 -0.017,-0.006 -0.03,-0.023 -0.059,-0.048 -0.087,-0.073 -0.05,-0.045 -0.097,-0.095 -0.139,-0.148 0,0 -0.001,-0.001 -0.002,-0.002 -10e-4,-0.002 -0.003,-0.004 -0.004,-0.007 -0.003,-0.003 -0.005,-0.006 -0.008,-0.009 -0.002,-0.003 -0.005,-0.006 -0.007,-0.01 -0.001,-0.001 -0.002,-0.002 -0.003,-0.003 -0.005,-0.007 -0.01,-0.016 -0.016,-0.023 0,-0.001 0,-0.001 -0.001,-0.002 -0.004,-0.004 -0.011,-0.008 -0.019,-0.009 -0.004,0.004 -0.007,0.009 -0.01,0.014 -0.002,0.004 -0.004,0.008 -0.007,0.011 -0.007,0.013 -0.014,0.026 -0.02,0.039 0,0 -10e-4,0.001 -10e-4,0.001 -0.002,0.004 -0.004,0.008 -0.005,0.012 0.026,0.028 0.051,0.057 0.075,0.086 0.001,0.002 0.003,0.004 0.005,0.006 0.008,0.01 0.016,0.021 0.024,0.031 0.014,0.017 0.027,0.034 0.04,0.051 0.005,0.006 0.01,0.013 0.015,0.019 0.026,0.034 0.051,0.067 0.075,0.101 0.001,0.001 0.001,0.002 0.002,0.003 0.003,0.005 0.007,0.01 0.01,0.015 0.011,0.017 0.022,0.034 0.033,0.051 0.009,0.016 0.018,0.032 0.026,0.048 10e-4,0.001 10e-4,0.002 0.002,0.003 0.001,0.002 0.002,0.004 0.002,0.005 0.002,0.003 0.003,0.006 0.004,0.009 0.009,0.018 0.016,0.037 0.023,0.056 0.001,0.002 0.001,0.004 0.002,0.006 0.002,0.005 0.004,0.011 0.006,0.016 0.002,0.009 0.005,0.017 0.007,0.026 v 0 c 0.001,0.002 0.001,0.004 0.001,0.006 0.003,0.012 0.006,0.023 0.009,0.035 10e-4,0.007 -0.001,0.012 -0.003,0.016 0.026,0.045 0.058,0.089 0.095,0.13 C -5.757,0.242 -5.761,0.241 -5.764,0.238 -5.799,0.216 -5.821,0.185 -5.853,0.162 c -0.026,-0.02 -0.074,0.012 -0.043,0.036 0.021,0.015 0.037,0.032 0.054,0.049 10e-4,0.001 10e-4,0.002 0.003,0.004 0.039,0.039 0.077,0.088 0.122,0.121 0.027,0.02 0.051,0.037 0.073,0.056 0.004,0.003 0.007,0.007 0.011,0.01 0.016,0.022 0.034,0.042 0.053,0.06 0.001,0.001 0.002,0.002 0.003,0.003 0.229,0.221 0.614,0.211 0.916,0.352 0.12,0.048 0.264,-0.024 0.383,0 0.072,0 0.144,0 0.216,-0.048 -0.215,-0.117 -0.414,-0.25 -0.61,-0.373 m 0.49,1.665 c -0.024,0.024 0.072,0 0.096,0.048 h -0.192 c -0.024,0 -0.024,0.024 -0.024,0.048 C -4.421,2.169 -4.565,2.121 -4.685,2.097 -4.852,2.049 -4.996,1.929 -5.187,1.882 -5.45,1.786 -5.666,1.571 -5.953,1.475 c -0.024,0 -0.024,0.024 -0.024,0.048 0.024,0.071 0.12,0.095 0.168,0.167 0,0.024 0,0.048 -0.024,0.048 0.191,0.263 0.455,0.407 0.694,0.622 v 0.072 c 0.072,0.096 0.191,0.144 0.239,0.263 0.024,0.072 0.12,0.168 0.239,0.215 -0.024,0.024 -0.071,0.024 -0.071,0.072 -0.096,0 -0.192,-0.048 -0.288,0.024 0.045,0.045 0.096,0.069 0.15,0.085 -0.02,0.004 -0.039,0.015 -0.054,0.035 -0.024,0.048 0.046,0.101 0.12,0.119 0.096,0.024 0.215,0.024 0.287,0.096 -0.168,0.024 -0.359,-0.048 -0.527,0.048 0.12,0.311 0.312,0.574 0.599,0.718 0.024,0 0.071,0 0.071,-0.024 0,-0.12 -0.071,-0.215 -0.191,-0.239 C -4.374,3.796 -4.182,3.796 -3.991,3.7 -4.015,3.652 -4.062,3.676 -4.086,3.676 c 0.119,-0.072 0.263,-0.024 0.382,-0.119 -0.071,-0.072 -0.143,0 -0.215,0 0.742,-0.216 1.531,-0.383 2.154,-0.862 -0.527,-0.263 -1.077,-0.383 -1.651,-0.502 -0.072,0 -0.12,0 -0.192,0.024 0,-0.024 0,-0.072 -0.024,-0.072 -0.095,0 -0.167,0 -0.239,-0.048 -0.096,-0.048 -0.239,-0.072 -0.311,0"
           style="fill:#283a7f;fill-opacity:1;fill-rule:nonzero;stroke:none"
           id="path162" /></g><g
         id="g164"
         transform="translate(83.0107,793.5248)"><path
           d="m 0,0 h -13.621 c 0,0 0.026,-0.004 0.129,-0.06 0.111,-0.059 0.254,-0.136 0.344,-0.183 0.175,-0.092 0.346,-0.207 0.456,-0.383 0.048,-0.071 0.12,-0.215 0.072,-0.311 -0.048,-0.119 -0.072,-0.311 -0.192,-0.359 -0.143,-0.071 -0.335,-0.071 -0.502,-0.047 -0.096,0 -0.191,0.023 -0.287,0.047 0.359,-0.143 0.694,-0.311 0.933,-0.646 0.024,-0.048 0.12,-0.071 0.215,-0.071 0.024,0 0.024,-0.048 0.024,-0.072 -0.048,-0.048 -0.095,-0.072 -0.071,-0.144 h 0.071 c 0.12,0.048 0.096,0.287 0.264,0.216 0.119,-0.072 0.167,-0.24 0.095,-0.359 -0.095,-0.096 -0.191,-0.168 -0.287,-0.24 -0.024,-0.047 -0.024,-0.119 0,-0.167 0.072,-0.096 0.096,-0.192 0.12,-0.287 0.072,-0.168 0.095,-0.359 0.167,-0.527 0.096,-0.359 0.192,-0.717 0.168,-1.076 0,-0.192 -0.096,-0.359 -0.024,-0.551 0.048,-0.191 0.167,-0.335 0.263,-0.502 0.096,-0.144 0.191,-0.24 0.263,-0.383 0.144,-0.239 0.407,-0.479 0.287,-0.766 -0.071,-0.167 -0.335,-0.143 -0.502,-0.239 -0.144,-0.12 -0.024,-0.311 0.048,-0.431 0.119,-0.215 -0.144,-0.359 -0.311,-0.43 0.047,-0.072 0.143,-0.048 0.167,-0.096 0.024,-0.12 0.144,-0.192 0.072,-0.311 -0.096,-0.144 -0.383,-0.216 -0.239,-0.431 0.095,-0.167 0.033,-0.353 -0.024,-0.526 -0.072,-0.216 -0.263,-0.311 -0.431,-0.359 -0.144,-0.048 -0.311,-0.048 -0.455,-0.024 -0.047,0.024 -0.095,0.048 -0.143,0.048 -0.407,0.048 -0.814,0.167 -1.221,0.167 -0.119,-0.024 -0.239,-0.048 -0.334,-0.096 -0.109,-0.079 -0.205,-0.165 -0.29,-0.256 -10e-4,-10e-4 -0.002,-0.002 -0.003,-0.003 -0.018,-0.019 -0.035,-0.038 -0.052,-0.058 -0.011,-0.012 -0.021,-0.024 -0.031,-0.036 -0.007,-0.009 -0.014,-0.017 -0.02,-0.025 -0.07,-0.088 -0.133,-0.18 -0.189,-0.276 -0.003,-0.006 -0.007,-0.012 -0.01,-0.018 -0.007,-0.011 -0.013,-0.023 -0.019,-0.034 -0.078,-0.145 -0.138,-0.294 -0.181,-0.439 -0.163,-0.548 -0.091,-1.018 0.023,-1.132 0.031,-0.032 0.789,-0.266 1.317,-0.501 0.248,-0.11 0.421,-0.195 0.565,-0.285 H 0 Z"
           style="fill:#ed1c24;fill-opacity:1;fill-rule:nonzero;stroke:none"
           id="path166" /></g><g
         id="g168"
         transform="translate(70.1998,788.9054)"><path
           d="M 0,0 C 0.096,-0.024 0.239,-0.024 0.239,-0.072 0.191,-0.263 -0.096,-0.311 -0.239,-0.503 h -0.072 c -0.072,-0.047 -0.048,-0.167 -0.12,-0.167 -0.072,0.024 -0.143,0 -0.215,-0.024 0.096,-0.096 0.215,-0.167 0.359,-0.143 0.024,0 0.072,-0.048 0.072,-0.096 0,0 0.023,0 0.047,0.024 0.024,0 0.048,0 0.048,-0.024 v -0.096 c -0.072,-0.096 -0.191,-0.048 -0.287,-0.072 0.192,-0.048 0.383,-0.048 0.55,0 0.144,0.048 0,0.287 0.096,0.407 -0.048,0 0,0.072 -0.048,0.072 0.048,0.048 0.096,0.119 0.144,0.143 0.048,0 0.12,0.024 0.143,0.072 0,0.048 -0.095,0.072 -0.071,0.12 C 0.55,-0.191 0.67,-0.048 0.622,0.096 0.598,0.168 0.407,0.168 0.287,0.215 0.167,0.263 0.024,0.215 -0.12,0.191 -0.239,0.191 -0.359,0.12 -0.479,0.096 -0.646,0.048 -0.79,-0.048 -0.933,-0.143 -0.766,-0.072 -0.598,-0.048 -0.407,0 -0.263,0 -0.141,0.035 0,0"
           style="fill:#918f90;fill-opacity:1;fill-rule:nonzero;stroke:none"
           id="path170" /></g></g></g></g>

</svg>
