<svg xmlns="http://www.w3.org/2000/svg" fill="none" viewBox="0 0 98 84">
  <path fill="#E4004A" d="M97.733 59.628C79.302-22.757 43.292 48.611 0 21.972v10.127c34.384 20.34 66.242-42.596 77.343 27.513h20.39v.016Z"/>
  <path fill="#55849D" d="M81.611 67.842h-2.293l-.47 1.562h-1.22l2.225-6.466h1.34l2.143 6.466h-1.255l-.47-1.562Zm-.25-.907-.837-3.024h-.017l-.921 3.024h1.774Zm2.945-1.511c0-.303-.016-.572-.033-.79h1.105c.017.235.034.487.034.722h.033c.168-.286.503-.807 1.306-.807 1.105 0 1.44.807 1.44 1.765v3.073H87v-2.855c0-.722-.183-1.042-.685-1.042-.62 0-.838.504-.838 1.11v2.77h-1.17v-3.947h-.002Zm9.828-2.486h1.105v2.418h.016c.169-.286.503-.807 1.306-.807 1.122 0 1.44.807 1.44 1.765v3.073h-1.19v-2.855c0-.739-.183-1.042-.668-1.042-.62 0-.838.504-.838 1.11v2.77h-1.188v-6.43h.017v-.001Zm-4.638 1.982a3.479 3.479 0 0 1 1.557-.354c1.524 0 1.875.723 1.875 1.916v2.082c0 .336.034.656.067.84h-1.071a2.625 2.625 0 0 1-.067-.655h-.017c-.285.386-.67.722-1.373.722-.77 0-1.473-.504-1.473-1.394 0-1.293 1.088-1.612 2.578-1.612h.235v-.185c0-.47-.235-.907-.921-.907-.603 0-1.122.286-1.34.47l-.05-.923Zm2.327 2.15h-.1c-1.004 0-1.607.2-1.607.89 0 .437.301.722.753.722.703 0 .97-.505.97-1.36v-.253h-.016ZM23.771 50.29H19.67l-.855 2.687h-2.19l4-11.17h2.392l3.85 11.17H24.61l-.838-2.688-.001.001Zm-.468-1.579-1.508-5.224h-.033l-1.64 5.224h3.18Zm4.904 5.543c.503.252 1.49.705 2.595.705 2.01 0 2.328-1.294 2.328-2.587v-.788h-.034c-.334.638-.938 1.393-2.327 1.393-1.223 0-3.08-.772-3.08-4.099 0-2.267.87-4.265 3.18-4.265 1.29 0 1.876.688 2.327 1.41h.068c0-.436.05-.856.066-1.277h1.925a16.1 16.1 0 0 0-.066 1.294v6.08c0 2.57-.838 4.418-4.069 4.418a9.146 9.146 0 0 1-3.03-.521l.117-1.763Zm3.064-2.738c1.34 0 1.876-.89 1.876-2.772 0-1.73-.704-2.653-1.71-2.636-1.104.016-1.54.973-1.54 2.653-.015 1.931.655 2.755 1.374 2.755Zm12.322 1.041a6.802 6.802 0 0 1-2.646.538c-2.829 0-4.067-1.898-4.067-4.132 0-2.47 1.389-4.368 3.632-4.368 1.909 0 3.533 1.041 3.533 4.402v.386H38.94c0 1.41.602 2.25 2.242 2.25 1.306 0 1.926-.37 2.31-.638l.102 1.562Zm-1.608-4.417c0-1.445-.519-2.184-1.473-2.184-1.122 0-1.573 1.108-1.573 2.184h3.046Zm3.801-2.05c0-.503-.017-.99-.068-1.36h1.976c.017.42.067.84.067 1.259h.05-.017c.319-.487.905-1.394 2.344-1.394 2.009 0 2.595 1.395 2.595 3.058v5.307h-2.126v-4.938c0-1.26-.335-1.797-1.222-1.797-1.105 0-1.507.89-1.507 1.931v4.804h-2.092v-6.87Zm14.698 6.668c-.502.185-1.239.337-2.092.337-2.913 0-4.152-1.898-4.152-4.234 0-2.35 1.306-4.265 4.269-4.265a5.8 5.8 0 0 1 1.841.336l-.117 1.562c-.385-.169-.904-.403-1.49-.403-1.607 0-2.31 1.007-2.31 2.771 0 1.529.787 2.72 2.41 2.72.52 0 1.206-.218 1.507-.402l.134 1.578Zm7.734-.2a6.699 6.699 0 0 1-2.627.537c-2.847 0-4.085-1.898-4.085-4.132 0-2.47 1.389-4.368 3.632-4.368 1.909 0 3.532 1.041 3.532 4.402v.386h-5.089c0 1.41.603 2.25 2.243 2.25 1.306 0 1.91-.37 2.31-.638l.085 1.562h-.001ZM66.61 48.14c0-1.445-.519-2.184-1.473-2.184-1.122 0-1.573 1.108-1.573 2.184h3.046ZM10.194 61.425a5.14 5.14 0 0 1 2.194-.47c2.16 0 2.661.974 2.661 2.604v2.821c0 .471.05.89.085 1.143h-1.509c-.083-.252-.099-.571-.099-.89h-.034c-.418.52-.937.991-1.942.991-1.071 0-2.076-.689-2.076-1.899 0-1.763 1.54-2.2 3.65-2.2h.335v-.235c0-.638-.335-1.226-1.29-1.226-.836 0-1.573.387-1.89.622l-.085-1.26Zm3.28 2.94h-.15c-1.422 0-2.276.27-2.276 1.226 0 .588.419.992 1.07.992.99 0 1.357-.69 1.357-1.848v-.37Zm3.634-4.652 1.674-.471v1.814h1.39v1.143h-1.39v3.36c0 .687.268.888.754.888.301 0 .519-.084.636-.133v1.108c-.251.117-.62.219-1.122.219-1.239 0-1.942-.538-1.942-1.882v-3.544h-1.106v-1.142h1.108v-1.36h-.002Zm4.504-1.411h1.724v1.528h-1.724v-1.528Zm.033 2.754h1.675v6.483h-1.675v-6.483Zm6.044-.1c1.423 0 3.046.687 3.046 3.325 0 2.72-1.624 3.343-3.046 3.343-1.406 0-3.048-.638-3.048-3.343 0-2.637 1.642-3.326 3.048-3.326Zm0 5.559c1.072 0 1.323-1.16 1.323-2.233 0-1.076-.252-2.218-1.323-2.218-1.072 0-1.323 1.142-1.323 2.217 0 1.092.251 2.234 1.323 2.234Zm4.369-4.4c0-.403-.017-.773-.05-1.075h1.557c.017.335.051.67.051.99h.034-.017c.25-.386.72-1.092 1.842-1.092 1.572 0 2.042 1.093 2.042 2.403v4.181h-1.674v-3.88c0-.99-.268-1.41-.955-1.41-.887 0-1.189.689-1.189 1.512v3.778h-1.674v-5.408h.034-.001Zm-29.263 0c0-.403-.017-.773-.05-1.075H4.3c.017.335.05.67.05.99h.034-.016c.25-.386.702-1.092 1.84-1.092 1.574 0 2.043 1.093 2.043 2.403v4.181h-1.64v-3.88c0-.99-.268-1.41-.954-1.41-.888 0-1.189.689-1.189 1.512v3.778H2.795v-5.408Zm36.646-.69a5.14 5.14 0 0 1 2.193-.47c2.16 0 2.645.974 2.645 2.604v2.821c0 .471.05.89.1 1.143h-1.507c-.084-.252-.1-.571-.1-.89h-.017c-.418.52-.937.991-1.94.991-1.09 0-2.078-.689-2.078-1.899 0-1.763 1.524-2.2 3.65-2.2h.335v-.235c0-.638-.335-1.226-1.29-1.226-.836 0-1.572.387-1.908.622l-.084-1.26h.001Zm3.28 2.94h-.15c-1.423 0-2.277.27-2.277 1.226 0 .588.42.992 1.055.992 1.004 0 1.357-.69 1.357-1.848v-.37h.016Zm3.215-6.265h1.674v9.422h-1.674V58.1Zm8.32 9.12c-.35.135-1.071.42-2.075.42-2.244 0-3.198-1.495-3.198-3.24 0-1.932 1.088-3.428 2.863-3.428 1.49 0 2.779.824 2.779 3.461v.302h-4.018c0 1.108.47 1.78 1.758 1.78 1.021 0 1.506-.286 1.825-.504l.067 1.21Zm-1.255-3.493c0-1.143-.402-1.73-1.155-1.73-.871 0-1.24.873-1.24 1.73h2.395ZM8.403 74.577v8.197c0 .453.016.858.05 1.092h-1.54c-.034-.185-.05-.554-.05-.991h-.034c-.267.538-.753 1.091-1.825 1.091-1.69 0-2.394-1.511-2.394-3.274 0-2.083.887-3.292 2.361-3.292.987 0 1.523.52 1.774 1.007h.034v-3.83h1.625-.001Zm-3.064 8.264c.97 0 1.306-.974 1.306-2.183 0-1.243-.369-2.15-1.272-2.15-.92 0-1.24.823-1.24 2.099 0 1.495.252 2.234 1.206 2.234ZM18.8 71.873h2.127v11.993H18.8V71.873Zm4.186.453h1.707v1.328l-.335 2.637h-1.373l.001-3.965Zm13.225 3.78c.602-.252 1.44-.605 2.795-.605 2.746 0 3.382 1.26 3.382 3.309v3.595c0 .603.067 1.142.117 1.46H40.58c-.1-.318-.117-.721-.117-1.124h-.034c-.535.672-1.205 1.242-2.46 1.242-1.373 0-2.645-.873-2.645-2.418 0-2.233 1.959-2.805 4.637-2.805h.419v-.303c0-.823-.419-1.562-1.642-1.562-1.054 0-2.008.487-2.41.807l-.117-1.596h-.001Zm4.185 3.728h-.184c-1.808 0-2.897.354-2.897 1.562 0 .757.536 1.26 1.357 1.26 1.272 0 1.724-.873 1.724-2.35v-.472Zm6.11-7.96v4.938h.034c.3-.639 1.004-1.31 2.276-1.31 1.91 0 3.048 1.562 3.048 4.249 0 2.284-.904 4.233-3.097 4.233-1.373 0-2.01-.706-2.344-1.412h-.05c0 .555-.034 1.042-.067 1.277h-1.993c.051-.302.068-.823.068-1.411V71.856h2.125v.017ZM48.18 82.54c1.239 0 1.557-.958 1.557-2.856 0-1.647-.418-2.721-1.59-2.721-1.155 0-1.64 1.175-1.64 2.77 0 1.546.435 2.805 1.673 2.805v.002Zm5.441-10.415h2.194v1.948H53.62v-1.948h.002Zm.034 3.51h2.126v8.23h-2.126v-8.23Zm5.038-1.696 2.127-.604v2.3h1.758v1.445H60.82v4.284c0 .873.335 1.142.954 1.142.369 0 .653-.101.804-.186v1.411c-.318.151-.787.269-1.424.269-1.573 0-2.46-.672-2.46-2.403V77.08h-1.406v-1.444h1.406v-1.697Zm5.977 2.167c.603-.252 1.44-.605 2.796-.605 2.745 0 3.381 1.26 3.381 3.309v3.595c0 .603.068 1.142.118 1.46h-1.926c-.1-.318-.116-.721-.116-1.124h-.033c-.536.672-1.206 1.242-2.461 1.242-1.374 0-2.646-.873-2.646-2.418 0-2.233 1.959-2.805 4.637-2.805h.436v-.303c0-.823-.436-1.562-1.64-1.562-1.072 0-1.993.487-2.412.807l-.134-1.596Zm4.186 3.728h-.185c-1.808 0-2.895.354-2.895 1.562 0 .757.535 1.26 1.355 1.26 1.272 0 1.725-.873 1.725-2.35v-.472Zm4.386-5.895 2.126-.604v2.3h1.758v1.445h-1.758v4.284c0 .873.335 1.142.954 1.142.385 0 .653-.101.804-.186v1.411c-.319.151-.787.269-1.424.269-1.572 0-2.46-.672-2.46-2.403V77.08h-1.406v-1.444h1.406v-1.697Zm-46.256-2.066h2.01v5.073h.032c.302-.504.921-1.378 2.361-1.378 2.025 0 2.629 1.378 2.629 3.024v5.274h-2.144v-4.904c0-1.26-.35-1.78-1.221-1.78-1.122 0-1.523.873-1.523 1.916v4.769h-2.144V71.873ZM14.932 83.58c-.352.134-1.055.403-2.043.403-2.193 0-3.164-1.477-3.164-3.19 0-1.899 1.072-3.377 2.813-3.377 1.473 0 2.729.806 2.729 3.41v.302h-3.935c0 1.092.47 1.746 1.742 1.746 1.004 0 1.49-.285 1.79-.503l.068 1.209Zm-1.255-3.426c0-1.125-.402-1.697-1.14-1.697-.87 0-1.22.858-1.22 1.697h2.359ZM85.194 10.43c0 1.647-1.507 2.974-3.381 2.974h-9.895c-1.874 0-3.382-1.327-3.382-2.974V2.974C68.536 1.328 70.061 0 71.918 0h9.895c1.857 0 3.38 1.328 3.38 2.974v7.457Z"/>
</svg>